G04 Layer_Physical_Order=1*
G04 Layer_Color=255*
%FSLAX25Y25*%
%MOIN*%
G70*
G01*
G75*
%ADD10R,0.03543X0.02756*%
%ADD11R,0.03543X0.03150*%
%ADD12R,0.03150X0.03543*%
%ADD13R,0.01969X0.01181*%
%ADD14R,0.01181X0.01969*%
%ADD15R,0.02756X0.03543*%
%ADD16R,0.10236X0.04724*%
%ADD17C,0.01000*%
%ADD18C,0.06000*%
%ADD19R,0.15748X0.13780*%
%ADD20C,0.06000*%
%ADD21C,0.05906*%
%ADD22R,0.05906X0.05906*%
%ADD23C,0.06299*%
%ADD24R,0.06000X0.06000*%
%ADD25C,0.05000*%
G36*
X320500Y248502D02*
X320499Y248376D01*
X320343Y248003D01*
X105000Y249000D01*
X104000Y248000D01*
X103000D01*
Y498000D01*
X102000Y499000D01*
X102500Y499500D01*
X320500D01*
Y248502D01*
D02*
G37*
%LPC*%
G36*
X244500Y356271D02*
X243456Y356133D01*
X242483Y355730D01*
X241647Y355089D01*
X241006Y354254D01*
X240603Y353280D01*
X240465Y352236D01*
X240603Y351192D01*
X241006Y350219D01*
X241647Y349383D01*
X242483Y348742D01*
X243456Y348339D01*
X244500Y348202D01*
X245544Y348339D01*
X246517Y348742D01*
X247353Y349383D01*
X247994Y350219D01*
X248397Y351192D01*
X248534Y352236D01*
X248397Y353280D01*
X247994Y354254D01*
X247353Y355089D01*
X246517Y355730D01*
X245544Y356133D01*
X244500Y356271D01*
D02*
G37*
G36*
X117500Y353034D02*
X116456Y352897D01*
X115483Y352494D01*
X114647Y351853D01*
X114006Y351017D01*
X113603Y350044D01*
X113465Y349000D01*
X113603Y347956D01*
X114006Y346983D01*
X114647Y346147D01*
X115483Y345506D01*
X116456Y345103D01*
X117500Y344966D01*
X118544Y345103D01*
X119517Y345506D01*
X120353Y346147D01*
X120994Y346983D01*
X121397Y347956D01*
X121535Y349000D01*
X121397Y350044D01*
X120994Y351017D01*
X120353Y351853D01*
X119517Y352494D01*
X118544Y352897D01*
X117500Y353034D01*
D02*
G37*
G36*
X307500Y359034D02*
X306456Y358897D01*
X305483Y358494D01*
X304647Y357853D01*
X304006Y357017D01*
X303603Y356044D01*
X303466Y355000D01*
X303603Y353956D01*
X304006Y352983D01*
X304647Y352147D01*
X305483Y351506D01*
X306456Y351103D01*
X307500Y350965D01*
X308544Y351103D01*
X309517Y351506D01*
X310353Y352147D01*
X310994Y352983D01*
X311397Y353956D01*
X311535Y355000D01*
X311397Y356044D01*
X310994Y357017D01*
X310353Y357853D01*
X309517Y358494D01*
X308544Y358897D01*
X307500Y359034D01*
D02*
G37*
G36*
Y369035D02*
X306456Y368897D01*
X305483Y368494D01*
X304647Y367853D01*
X304006Y367017D01*
X303603Y366044D01*
X303466Y365000D01*
X303603Y363956D01*
X304006Y362983D01*
X304647Y362147D01*
X305483Y361506D01*
X306456Y361103D01*
X307500Y360965D01*
X308544Y361103D01*
X309517Y361506D01*
X310353Y362147D01*
X310994Y362983D01*
X311397Y363956D01*
X311535Y365000D01*
X311397Y366044D01*
X310994Y367017D01*
X310353Y367853D01*
X309517Y368494D01*
X308544Y368897D01*
X307500Y369035D01*
D02*
G37*
G36*
X117500Y363035D02*
X116456Y362897D01*
X115483Y362494D01*
X114647Y361853D01*
X114006Y361017D01*
X113603Y360044D01*
X113465Y359000D01*
X113603Y357956D01*
X114006Y356983D01*
X114647Y356147D01*
X115483Y355506D01*
X116456Y355103D01*
X117500Y354965D01*
X118544Y355103D01*
X119517Y355506D01*
X120353Y356147D01*
X120994Y356983D01*
X121397Y357956D01*
X121535Y359000D01*
X121397Y360044D01*
X120994Y361017D01*
X120353Y361853D01*
X119517Y362494D01*
X118544Y362897D01*
X117500Y363035D01*
D02*
G37*
G36*
Y343035D02*
X116456Y342897D01*
X115483Y342494D01*
X114647Y341853D01*
X114006Y341017D01*
X113603Y340044D01*
X113465Y339000D01*
X113603Y337956D01*
X114006Y336983D01*
X114647Y336147D01*
X115483Y335506D01*
X116456Y335103D01*
X117500Y334965D01*
X118544Y335103D01*
X119517Y335506D01*
X120353Y336147D01*
X120994Y336983D01*
X121397Y337956D01*
X121535Y339000D01*
X121397Y340044D01*
X120994Y341017D01*
X120353Y341853D01*
X119517Y342494D01*
X118544Y342897D01*
X117500Y343035D01*
D02*
G37*
G36*
X248469Y336972D02*
X245000D01*
Y333504D01*
X245544Y333575D01*
X246517Y333978D01*
X247353Y334620D01*
X247994Y335455D01*
X248397Y336428D01*
X248469Y336972D01*
D02*
G37*
G36*
X244000Y341441D02*
X243456Y341370D01*
X242483Y340966D01*
X241647Y340325D01*
X241006Y339490D01*
X240603Y338517D01*
X240531Y337972D01*
X244000D01*
Y341441D01*
D02*
G37*
G36*
X307500Y349035D02*
X306456Y348897D01*
X305483Y348494D01*
X304647Y347853D01*
X304006Y347017D01*
X303603Y346044D01*
X303466Y345000D01*
X303603Y343956D01*
X304006Y342983D01*
X304647Y342147D01*
X305483Y341506D01*
X306456Y341103D01*
X307500Y340966D01*
X308544Y341103D01*
X309517Y341506D01*
X310353Y342147D01*
X310994Y342983D01*
X311397Y343956D01*
X311535Y345000D01*
X311397Y346044D01*
X310994Y347017D01*
X310353Y347853D01*
X309517Y348494D01*
X308544Y348897D01*
X307500Y349035D01*
D02*
G37*
G36*
X245000Y341441D02*
Y337972D01*
X248469D01*
X248397Y338517D01*
X247994Y339490D01*
X247353Y340325D01*
X246517Y340966D01*
X245544Y341370D01*
X245000Y341441D01*
D02*
G37*
G36*
X307500Y379034D02*
X306456Y378897D01*
X305483Y378494D01*
X304647Y377853D01*
X304006Y377017D01*
X303603Y376044D01*
X303466Y375000D01*
X303603Y373956D01*
X304006Y372983D01*
X304647Y372147D01*
X305483Y371506D01*
X306456Y371103D01*
X307500Y370966D01*
X308544Y371103D01*
X309517Y371506D01*
X310353Y372147D01*
X310994Y372983D01*
X311397Y373956D01*
X311535Y375000D01*
X311397Y376044D01*
X310994Y377017D01*
X310353Y377853D01*
X309517Y378494D01*
X308544Y378897D01*
X307500Y379034D01*
D02*
G37*
G36*
X198138Y375362D02*
X185902D01*
Y368638D01*
X198138D01*
Y375362D01*
D02*
G37*
G36*
X121500Y383000D02*
X113500D01*
Y375000D01*
X121500D01*
Y383000D01*
D02*
G37*
G36*
X198138Y385362D02*
X185902D01*
Y378638D01*
X198138D01*
Y385362D01*
D02*
G37*
G36*
X163098D02*
X150862D01*
Y378638D01*
X163098D01*
Y385362D01*
D02*
G37*
G36*
X117500Y373035D02*
X116456Y372897D01*
X115483Y372494D01*
X114647Y371853D01*
X114006Y371017D01*
X113603Y370044D01*
X113465Y369000D01*
X113603Y367956D01*
X114006Y366983D01*
X114647Y366147D01*
X115483Y365506D01*
X116456Y365103D01*
X117500Y364966D01*
X118544Y365103D01*
X119517Y365506D01*
X120353Y366147D01*
X120994Y366983D01*
X121397Y367956D01*
X121535Y369000D01*
X121397Y370044D01*
X120994Y371017D01*
X120353Y371853D01*
X119517Y372494D01*
X118544Y372897D01*
X117500Y373035D01*
D02*
G37*
G36*
X244500Y371035D02*
X243456Y370897D01*
X242483Y370494D01*
X241647Y369853D01*
X241006Y369017D01*
X240603Y368044D01*
X240465Y367000D01*
X240603Y365956D01*
X241006Y364983D01*
X241647Y364147D01*
X242483Y363506D01*
X243456Y363103D01*
X244500Y362965D01*
X245544Y363103D01*
X246517Y363506D01*
X247353Y364147D01*
X247994Y364983D01*
X248397Y365956D01*
X248534Y367000D01*
X248397Y368044D01*
X247994Y369017D01*
X247353Y369853D01*
X246517Y370494D01*
X245544Y370897D01*
X244500Y371035D01*
D02*
G37*
G36*
X271091Y381583D02*
X253343D01*
Y365803D01*
X271091D01*
Y381583D01*
D02*
G37*
G36*
X163098Y375362D02*
X150862D01*
Y368638D01*
X163098D01*
Y375362D01*
D02*
G37*
G36*
X212969Y369500D02*
X209500D01*
Y366031D01*
X210044Y366103D01*
X211017Y366506D01*
X211853Y367147D01*
X212494Y367983D01*
X212897Y368956D01*
X212969Y369500D01*
D02*
G37*
G36*
X117500Y303034D02*
X116456Y302897D01*
X115483Y302494D01*
X114647Y301853D01*
X114006Y301017D01*
X113603Y300044D01*
X113465Y299000D01*
X113603Y297956D01*
X114006Y296983D01*
X114647Y296147D01*
X115483Y295506D01*
X116456Y295103D01*
X117500Y294966D01*
X118544Y295103D01*
X119517Y295506D01*
X120353Y296147D01*
X120994Y296983D01*
X121397Y297956D01*
X121535Y299000D01*
X121397Y300044D01*
X120994Y301017D01*
X120353Y301853D01*
X119517Y302494D01*
X118544Y302897D01*
X117500Y303034D01*
D02*
G37*
G36*
X151000Y293685D02*
X149917Y293543D01*
X148907Y293125D01*
X148040Y292460D01*
X147375Y291593D01*
X146957Y290583D01*
X146815Y289500D01*
X146957Y288417D01*
X147375Y287407D01*
X148040Y286541D01*
X148907Y285875D01*
X149917Y285457D01*
X151000Y285315D01*
X152083Y285457D01*
X153093Y285875D01*
X153960Y286541D01*
X154625Y287407D01*
X155043Y288417D01*
X155185Y289500D01*
X155043Y290583D01*
X154625Y291593D01*
X153960Y292460D01*
X153093Y293125D01*
X152083Y293543D01*
X151000Y293685D01*
D02*
G37*
G36*
X144772Y315925D02*
X139228D01*
Y311169D01*
X140471D01*
Y309155D01*
X140235Y309057D01*
X139504Y308496D01*
X138943Y307765D01*
X138590Y306914D01*
X138470Y306000D01*
X138590Y305086D01*
X138943Y304235D01*
X139504Y303504D01*
X140235Y302943D01*
X141086Y302590D01*
X142000Y302470D01*
X142914Y302590D01*
X143765Y302943D01*
X144496Y303504D01*
X145057Y304235D01*
X145410Y305086D01*
X145530Y306000D01*
X145410Y306914D01*
X145057Y307765D01*
X144496Y308496D01*
X143765Y309057D01*
X143529Y309155D01*
Y311169D01*
X144772D01*
Y315925D01*
D02*
G37*
G36*
X117000Y318500D02*
X113531D01*
X113603Y317956D01*
X114006Y316983D01*
X114647Y316147D01*
X115483Y315506D01*
X116456Y315103D01*
X117000Y315031D01*
Y318500D01*
D02*
G37*
G36*
X117500Y313035D02*
X116456Y312897D01*
X115483Y312494D01*
X114647Y311853D01*
X114006Y311017D01*
X113603Y310044D01*
X113465Y309000D01*
X113603Y307956D01*
X114006Y306983D01*
X114647Y306147D01*
X115483Y305506D01*
X116456Y305103D01*
X117500Y304965D01*
X118544Y305103D01*
X119517Y305506D01*
X120353Y306147D01*
X120994Y306983D01*
X121397Y307956D01*
X121535Y309000D01*
X121397Y310044D01*
X120994Y311017D01*
X120353Y311853D01*
X119517Y312494D01*
X118544Y312897D01*
X117500Y313035D01*
D02*
G37*
G36*
X196421Y277000D02*
X193000D01*
Y273579D01*
X193532Y273649D01*
X194493Y274047D01*
X195319Y274681D01*
X195953Y275507D01*
X196351Y276468D01*
X196421Y277000D01*
D02*
G37*
G36*
X192000D02*
X188579D01*
X188649Y276468D01*
X189047Y275507D01*
X189681Y274681D01*
X190507Y274047D01*
X191468Y273649D01*
X192000Y273579D01*
Y277000D01*
D02*
G37*
G36*
X194925Y305500D02*
X190169D01*
Y303228D01*
X190971D01*
Y281145D01*
X190507Y280953D01*
X189681Y280319D01*
X189047Y279493D01*
X188649Y278532D01*
X188579Y278000D01*
X196421D01*
X196351Y278532D01*
X195953Y279493D01*
X195319Y280319D01*
X194493Y280953D01*
X194029Y281145D01*
Y303228D01*
X194925D01*
Y305500D01*
D02*
G37*
G36*
X141000Y293685D02*
X139917Y293543D01*
X138907Y293125D01*
X138040Y292460D01*
X137375Y291593D01*
X136957Y290583D01*
X136815Y289500D01*
X136957Y288417D01*
X137375Y287407D01*
X138040Y286541D01*
X138907Y285875D01*
X139917Y285457D01*
X141000Y285315D01*
X142083Y285457D01*
X143093Y285875D01*
X143959Y286541D01*
X144625Y287407D01*
X145043Y288417D01*
X145185Y289500D01*
X145043Y290583D01*
X144625Y291593D01*
X143959Y292460D01*
X143093Y293125D01*
X142083Y293543D01*
X141000Y293685D01*
D02*
G37*
G36*
X117500Y293035D02*
X116456Y292897D01*
X115483Y292494D01*
X114647Y291853D01*
X114006Y291017D01*
X113603Y290044D01*
X113465Y289000D01*
X113603Y287956D01*
X114006Y286983D01*
X114647Y286147D01*
X115483Y285506D01*
X116456Y285103D01*
X117500Y284965D01*
X118544Y285103D01*
X119517Y285506D01*
X120353Y286147D01*
X120994Y286983D01*
X121397Y287956D01*
X121535Y289000D01*
X121397Y290044D01*
X120994Y291017D01*
X120353Y291853D01*
X119517Y292494D01*
X118544Y292897D01*
X117500Y293035D01*
D02*
G37*
G36*
X271091Y338276D02*
X253343D01*
Y322496D01*
X271091D01*
Y338276D01*
D02*
G37*
G36*
X307500Y329034D02*
X306456Y328897D01*
X305483Y328494D01*
X304647Y327853D01*
X304006Y327017D01*
X303603Y326044D01*
X303466Y325000D01*
X303603Y323956D01*
X304006Y322983D01*
X304647Y322147D01*
X305483Y321506D01*
X306456Y321103D01*
X307500Y320966D01*
X308544Y321103D01*
X309517Y321506D01*
X310353Y322147D01*
X310994Y322983D01*
X311397Y323956D01*
X311535Y325000D01*
X311397Y326044D01*
X310994Y327017D01*
X310353Y327853D01*
X309517Y328494D01*
X308544Y328897D01*
X307500Y329034D01*
D02*
G37*
G36*
X117500Y333034D02*
X116456Y332897D01*
X115483Y332494D01*
X114647Y331853D01*
X114006Y331017D01*
X113603Y330044D01*
X113465Y329000D01*
X113603Y327956D01*
X114006Y326983D01*
X114647Y326147D01*
X115483Y325506D01*
X116456Y325103D01*
X117500Y324966D01*
X118544Y325103D01*
X119517Y325506D01*
X120353Y326147D01*
X120994Y326983D01*
X121397Y327956D01*
X121535Y329000D01*
X121397Y330044D01*
X120994Y331017D01*
X120353Y331853D01*
X119517Y332494D01*
X118544Y332897D01*
X117500Y333034D01*
D02*
G37*
G36*
X244000Y336972D02*
X240531D01*
X240603Y336428D01*
X241006Y335455D01*
X241647Y334620D01*
X242483Y333978D01*
X243456Y333575D01*
X244000Y333504D01*
Y336972D01*
D02*
G37*
G36*
X307500Y339035D02*
X306456Y338897D01*
X305483Y338494D01*
X304647Y337853D01*
X304006Y337017D01*
X303603Y336044D01*
X303466Y335000D01*
X303603Y333956D01*
X304006Y332983D01*
X304647Y332147D01*
X305483Y331506D01*
X306456Y331103D01*
X307500Y330965D01*
X308544Y331103D01*
X309517Y331506D01*
X310353Y332147D01*
X310994Y332983D01*
X311397Y333956D01*
X311535Y335000D01*
X311397Y336044D01*
X310994Y337017D01*
X310353Y337853D01*
X309517Y338494D01*
X308544Y338897D01*
X307500Y339035D01*
D02*
G37*
G36*
X141500Y318953D02*
X139228D01*
Y317075D01*
X141500D01*
Y318953D01*
D02*
G37*
G36*
X121469Y318500D02*
X118000D01*
Y315031D01*
X118544Y315103D01*
X119517Y315506D01*
X120353Y316147D01*
X120994Y316983D01*
X121397Y317956D01*
X121469Y318500D01*
D02*
G37*
G36*
X117000Y322969D02*
X116456Y322897D01*
X115483Y322494D01*
X114647Y321853D01*
X114006Y321017D01*
X113603Y320044D01*
X113531Y319500D01*
X117000D01*
Y322969D01*
D02*
G37*
G36*
X141500Y321831D02*
X139228D01*
Y319953D01*
X141500D01*
Y321831D01*
D02*
G37*
G36*
X118000Y322969D02*
Y319500D01*
X121469D01*
X121397Y320044D01*
X120994Y321017D01*
X120353Y321853D01*
X119517Y322494D01*
X118544Y322897D01*
X118000Y322969D01*
D02*
G37*
G36*
X307500Y389035D02*
X306456Y388897D01*
X305483Y388494D01*
X304647Y387853D01*
X304006Y387017D01*
X303603Y386044D01*
X303466Y385000D01*
X303603Y383956D01*
X304006Y382983D01*
X304647Y382147D01*
X305483Y381506D01*
X306456Y381103D01*
X307500Y380965D01*
X308544Y381103D01*
X309517Y381506D01*
X310353Y382147D01*
X310994Y382983D01*
X311397Y383956D01*
X311535Y385000D01*
X311397Y386044D01*
X310994Y387017D01*
X310353Y387853D01*
X309517Y388494D01*
X308544Y388897D01*
X307500Y389035D01*
D02*
G37*
G36*
X163098Y445362D02*
X150862D01*
Y442529D01*
X140155D01*
X140057Y442765D01*
X139496Y443496D01*
X138765Y444057D01*
X137914Y444410D01*
X137000Y444530D01*
X136086Y444410D01*
X135235Y444057D01*
X134504Y443496D01*
X133943Y442765D01*
X133590Y441914D01*
X133470Y441000D01*
X133590Y440086D01*
X133943Y439235D01*
X134504Y438504D01*
X135235Y437943D01*
X136086Y437590D01*
X137000Y437470D01*
X137914Y437590D01*
X138765Y437943D01*
X139496Y438504D01*
X140057Y439235D01*
X140155Y439471D01*
X150862D01*
Y438638D01*
X163098D01*
Y445362D01*
D02*
G37*
G36*
X122469Y444500D02*
X119000D01*
Y441031D01*
X119544Y441103D01*
X120517Y441506D01*
X121353Y442147D01*
X121994Y442983D01*
X122397Y443956D01*
X122469Y444500D01*
D02*
G37*
G36*
X118000Y448969D02*
X117456Y448897D01*
X116483Y448494D01*
X115647Y447853D01*
X115006Y447017D01*
X114603Y446044D01*
X114531Y445500D01*
X118000D01*
Y448969D01*
D02*
G37*
G36*
X307500Y459034D02*
X306456Y458897D01*
X305483Y458494D01*
X304647Y457853D01*
X304006Y457017D01*
X303603Y456044D01*
X303466Y455000D01*
X303603Y453956D01*
X304006Y452983D01*
X304647Y452147D01*
X305483Y451506D01*
X306456Y451103D01*
X307500Y450965D01*
X308544Y451103D01*
X309517Y451506D01*
X310353Y452147D01*
X310994Y452983D01*
X311397Y453956D01*
X311535Y455000D01*
X311397Y456044D01*
X310994Y457017D01*
X310353Y457853D01*
X309517Y458494D01*
X308544Y458897D01*
X307500Y459034D01*
D02*
G37*
G36*
X119000Y448969D02*
Y445500D01*
X122469D01*
X122397Y446044D01*
X121994Y447017D01*
X121353Y447853D01*
X120517Y448494D01*
X119544Y448897D01*
X119000Y448969D01*
D02*
G37*
G36*
X118000Y444500D02*
X114531D01*
X114603Y443956D01*
X115006Y442983D01*
X115647Y442147D01*
X116483Y441506D01*
X117456Y441103D01*
X118000Y441031D01*
Y444500D01*
D02*
G37*
G36*
X307500Y439035D02*
X306456Y438897D01*
X305483Y438494D01*
X304647Y437853D01*
X304006Y437017D01*
X303603Y436044D01*
X303466Y435000D01*
X303603Y433956D01*
X304006Y432983D01*
X304647Y432147D01*
X305483Y431506D01*
X306456Y431103D01*
X307500Y430966D01*
X308544Y431103D01*
X309517Y431506D01*
X310353Y432147D01*
X310994Y432983D01*
X311397Y433956D01*
X311535Y435000D01*
X311397Y436044D01*
X310994Y437017D01*
X310353Y437853D01*
X309517Y438494D01*
X308544Y438897D01*
X307500Y439035D01*
D02*
G37*
G36*
X118500D02*
X117456Y438897D01*
X116483Y438494D01*
X115647Y437853D01*
X115006Y437017D01*
X114603Y436044D01*
X114465Y435000D01*
X114603Y433956D01*
X115006Y432983D01*
X115647Y432147D01*
X116483Y431506D01*
X117456Y431103D01*
X118500Y430966D01*
X119544Y431103D01*
X120517Y431506D01*
X121353Y432147D01*
X121994Y432983D01*
X122397Y433956D01*
X122535Y435000D01*
X122397Y436044D01*
X121994Y437017D01*
X121353Y437853D01*
X120517Y438494D01*
X119544Y438897D01*
X118500Y439035D01*
D02*
G37*
G36*
X239000Y443987D02*
X237968Y443851D01*
X237007Y443453D01*
X236181Y442819D01*
X235547Y441993D01*
X235149Y441032D01*
X235013Y440000D01*
X235149Y438968D01*
X235547Y438007D01*
X236181Y437181D01*
X237007Y436547D01*
X237968Y436149D01*
X239000Y436013D01*
X240032Y436149D01*
X240993Y436547D01*
X241819Y437181D01*
X242453Y438007D01*
X242851Y438968D01*
X242987Y440000D01*
X242851Y441032D01*
X242453Y441993D01*
X241819Y442819D01*
X240993Y443453D01*
X240032Y443851D01*
X239000Y443987D01*
D02*
G37*
G36*
X307500Y449035D02*
X306456Y448897D01*
X305483Y448494D01*
X304647Y447853D01*
X304006Y447017D01*
X303603Y446044D01*
X303466Y445000D01*
X303603Y443956D01*
X304006Y442983D01*
X304647Y442147D01*
X305483Y441506D01*
X306456Y441103D01*
X307500Y440966D01*
X308544Y441103D01*
X309517Y441506D01*
X310353Y442147D01*
X310994Y442983D01*
X311397Y443956D01*
X311535Y445000D01*
X311397Y446044D01*
X310994Y447017D01*
X310353Y447853D01*
X309517Y448494D01*
X308544Y448897D01*
X307500Y449035D01*
D02*
G37*
G36*
X212953Y443953D02*
X205047D01*
Y436047D01*
X212953D01*
Y443953D01*
D02*
G37*
G36*
X198685Y467000D02*
X195216D01*
X195288Y466456D01*
X195691Y465483D01*
X196332Y464647D01*
X197168Y464006D01*
X198141Y463603D01*
X198685Y463531D01*
Y467000D01*
D02*
G37*
G36*
X122500Y469000D02*
X114500D01*
Y461000D01*
X122500D01*
Y469000D01*
D02*
G37*
G36*
X198685Y471469D02*
X198141Y471397D01*
X197168Y470994D01*
X196332Y470353D01*
X195691Y469517D01*
X195288Y468544D01*
X195216Y468000D01*
X198685D01*
Y471469D01*
D02*
G37*
G36*
X223500D02*
X222956Y471397D01*
X221983Y470994D01*
X221147Y470353D01*
X220506Y469517D01*
X220304Y469029D01*
X202881D01*
X202679Y469517D01*
X202038Y470353D01*
X201202Y470994D01*
X200229Y471397D01*
X199685Y471469D01*
Y467500D01*
Y463531D01*
X200229Y463603D01*
X201202Y464006D01*
X202038Y464647D01*
X202679Y465483D01*
X202881Y465971D01*
X220304D01*
X220506Y465483D01*
X221147Y464647D01*
X221983Y464006D01*
X222471Y463804D01*
Y425633D01*
X210496Y413659D01*
X210032Y413851D01*
X209500Y413921D01*
Y410500D01*
X212921D01*
X212851Y411032D01*
X212659Y411496D01*
X225081Y423919D01*
X225413Y424415D01*
X225529Y425000D01*
Y463804D01*
X226017Y464006D01*
X226853Y464647D01*
X227494Y465483D01*
X227897Y466456D01*
X227969Y467000D01*
X224000D01*
Y467500D01*
X223500D01*
Y471469D01*
D02*
G37*
G36*
X224500D02*
Y468000D01*
X227969D01*
X227897Y468544D01*
X227494Y469517D01*
X226853Y470353D01*
X226017Y470994D01*
X225044Y471397D01*
X224500Y471469D01*
D02*
G37*
G36*
X307500Y469034D02*
X306456Y468897D01*
X305483Y468494D01*
X304647Y467853D01*
X304006Y467017D01*
X303603Y466044D01*
X303466Y465000D01*
X303603Y463956D01*
X304006Y462983D01*
X304647Y462147D01*
X305483Y461506D01*
X306456Y461103D01*
X307500Y460965D01*
X308544Y461103D01*
X309517Y461506D01*
X310353Y462147D01*
X310994Y462983D01*
X311397Y463956D01*
X311535Y465000D01*
X311397Y466044D01*
X310994Y467017D01*
X310353Y467853D01*
X309517Y468494D01*
X308544Y468897D01*
X307500Y469034D01*
D02*
G37*
G36*
X122469Y454500D02*
X119000D01*
Y451031D01*
X119544Y451103D01*
X120517Y451506D01*
X121353Y452147D01*
X121994Y452983D01*
X122397Y453956D01*
X122469Y454500D01*
D02*
G37*
G36*
X118000D02*
X114531D01*
X114603Y453956D01*
X115006Y452983D01*
X115647Y452147D01*
X116483Y451506D01*
X117456Y451103D01*
X118000Y451031D01*
Y454500D01*
D02*
G37*
G36*
X179500Y471534D02*
X178456Y471397D01*
X177483Y470994D01*
X176647Y470353D01*
X176006Y469517D01*
X175603Y468544D01*
X175466Y467500D01*
X175603Y466456D01*
X176006Y465483D01*
X176647Y464647D01*
X177483Y464006D01*
X177971Y463804D01*
Y460196D01*
X177483Y459994D01*
X176647Y459353D01*
X176006Y458517D01*
X175603Y457544D01*
X175466Y456500D01*
X175603Y455456D01*
X176006Y454483D01*
X176647Y453647D01*
X177483Y453006D01*
X178456Y452603D01*
X179500Y452465D01*
X180544Y452603D01*
X181517Y453006D01*
X182353Y453647D01*
X182994Y454483D01*
X183397Y455456D01*
X183535Y456500D01*
X183397Y457544D01*
X182994Y458517D01*
X182353Y459353D01*
X181517Y459994D01*
X181029Y460196D01*
Y463804D01*
X181517Y464006D01*
X182353Y464647D01*
X182994Y465483D01*
X183397Y466456D01*
X183535Y467500D01*
X183397Y468544D01*
X182994Y469517D01*
X182353Y470353D01*
X181517Y470994D01*
X180544Y471397D01*
X179500Y471534D01*
D02*
G37*
G36*
X119000Y458969D02*
Y455500D01*
X122469D01*
X122397Y456044D01*
X121994Y457017D01*
X121353Y457853D01*
X120517Y458494D01*
X119544Y458897D01*
X119000Y458969D01*
D02*
G37*
G36*
X118000D02*
X117456Y458897D01*
X116483Y458494D01*
X115647Y457853D01*
X115006Y457017D01*
X114603Y456044D01*
X114531Y455500D01*
X118000D01*
Y458969D01*
D02*
G37*
G36*
X118500Y409034D02*
X117456Y408897D01*
X116483Y408494D01*
X115647Y407853D01*
X115006Y407017D01*
X114603Y406044D01*
X114465Y405000D01*
X114603Y403956D01*
X115006Y402983D01*
X115647Y402147D01*
X116483Y401506D01*
X117456Y401103D01*
X118500Y400965D01*
X119544Y401103D01*
X120517Y401506D01*
X121353Y402147D01*
X121994Y402983D01*
X122397Y403956D01*
X122535Y405000D01*
X122397Y406044D01*
X121994Y407017D01*
X121353Y407853D01*
X120517Y408494D01*
X119544Y408897D01*
X118500Y409034D01*
D02*
G37*
G36*
X198138Y405362D02*
X185902D01*
Y398638D01*
X198138D01*
Y405362D01*
D02*
G37*
G36*
X239000Y413987D02*
X237968Y413851D01*
X237007Y413453D01*
X236181Y412819D01*
X235547Y411993D01*
X235149Y411032D01*
X235013Y410000D01*
X235149Y408968D01*
X235195Y408858D01*
X227032Y400695D01*
X226544Y400897D01*
X225500Y401034D01*
X224456Y400897D01*
X223483Y400494D01*
X222647Y399853D01*
X222006Y399017D01*
X221603Y398044D01*
X221465Y397000D01*
X221603Y395956D01*
X222006Y394983D01*
X222647Y394147D01*
X223483Y393506D01*
X224456Y393103D01*
X225500Y392966D01*
X226544Y393103D01*
X227517Y393506D01*
X228353Y394147D01*
X228994Y394983D01*
X229397Y395956D01*
X229535Y397000D01*
X229397Y398044D01*
X229195Y398532D01*
X237151Y406488D01*
X237968Y406149D01*
X239000Y406013D01*
X240032Y406149D01*
X240993Y406547D01*
X241819Y407181D01*
X242453Y408007D01*
X242851Y408968D01*
X242987Y410000D01*
X242851Y411032D01*
X242453Y411993D01*
X241819Y412819D01*
X240993Y413453D01*
X240032Y413851D01*
X239000Y413987D01*
D02*
G37*
G36*
X118500Y419034D02*
X117456Y418897D01*
X116483Y418494D01*
X115647Y417853D01*
X115006Y417017D01*
X114603Y416044D01*
X114465Y415000D01*
X114603Y413956D01*
X115006Y412983D01*
X115647Y412147D01*
X116483Y411506D01*
X117456Y411103D01*
X118500Y410965D01*
X119544Y411103D01*
X120517Y411506D01*
X121353Y412147D01*
X121994Y412983D01*
X122397Y413956D01*
X122535Y415000D01*
X122397Y416044D01*
X121994Y417017D01*
X121353Y417853D01*
X120517Y418494D01*
X119544Y418897D01*
X118500Y419034D01*
D02*
G37*
G36*
X163098Y415362D02*
X150862D01*
Y413529D01*
X146500D01*
X145915Y413413D01*
X145419Y413081D01*
X143919Y411581D01*
X143587Y411085D01*
X143471Y410500D01*
Y367696D01*
X142983Y367494D01*
X142147Y366853D01*
X141506Y366017D01*
X141103Y365044D01*
X140965Y364000D01*
X141103Y362956D01*
X141506Y361983D01*
X142147Y361147D01*
X142983Y360506D01*
X143956Y360103D01*
X145000Y359965D01*
X146044Y360103D01*
X147017Y360506D01*
X147853Y361147D01*
X148494Y361983D01*
X148897Y362956D01*
X149035Y364000D01*
X148897Y365044D01*
X148494Y366017D01*
X147853Y366853D01*
X147017Y367494D01*
X146529Y367696D01*
Y409867D01*
X147134Y410471D01*
X150862D01*
Y408638D01*
X163098D01*
Y415362D01*
D02*
G37*
G36*
X198138Y395362D02*
X185902D01*
Y388638D01*
X198138D01*
Y395362D01*
D02*
G37*
G36*
X163098D02*
X150862D01*
Y388638D01*
X163098D01*
Y395362D01*
D02*
G37*
G36*
X118500Y399035D02*
X117456Y398897D01*
X116483Y398494D01*
X115647Y397853D01*
X115006Y397017D01*
X114603Y396044D01*
X114465Y395000D01*
X114603Y393956D01*
X115006Y392983D01*
X115647Y392147D01*
X116483Y391506D01*
X117456Y391103D01*
X118500Y390966D01*
X119544Y391103D01*
X120517Y391506D01*
X121353Y392147D01*
X121994Y392983D01*
X122397Y393956D01*
X122535Y395000D01*
X122397Y396044D01*
X121994Y397017D01*
X121353Y397853D01*
X120517Y398494D01*
X119544Y398897D01*
X118500Y399035D01*
D02*
G37*
G36*
X163098Y405362D02*
X150862D01*
Y398638D01*
X163098D01*
Y405362D01*
D02*
G37*
G36*
X311500Y399000D02*
X303500D01*
Y391000D01*
X311500D01*
Y399000D01*
D02*
G37*
G36*
Y419000D02*
X303500D01*
Y411000D01*
X311500D01*
Y419000D01*
D02*
G37*
G36*
X198138Y445362D02*
X185902D01*
Y438638D01*
X190490D01*
Y435362D01*
X185902D01*
Y428638D01*
X190490D01*
Y425362D01*
X185902D01*
Y418638D01*
X190490D01*
Y415362D01*
X185902D01*
Y408638D01*
X198138D01*
Y415362D01*
X193549D01*
Y418638D01*
X198138D01*
Y425362D01*
X193549D01*
Y428638D01*
X198138D01*
Y430471D01*
X204696D01*
X205026Y430095D01*
X205013Y430000D01*
X205149Y428968D01*
X205547Y428007D01*
X206181Y427181D01*
X207007Y426547D01*
X207968Y426149D01*
X209000Y426013D01*
X210032Y426149D01*
X210993Y426547D01*
X211819Y427181D01*
X212453Y428007D01*
X212851Y428968D01*
X212987Y430000D01*
X212851Y431032D01*
X212453Y431993D01*
X211819Y432819D01*
X210993Y433453D01*
X210032Y433851D01*
X209000Y433987D01*
X207968Y433851D01*
X207130Y433504D01*
X207000Y433529D01*
X198138D01*
Y435362D01*
X193549D01*
Y438638D01*
X198138D01*
Y445362D01*
D02*
G37*
G36*
X247843Y482687D02*
X203000D01*
X202415Y482570D01*
X201919Y482239D01*
X190875Y471195D01*
X190387Y471397D01*
X189342Y471534D01*
X188298Y471397D01*
X187325Y470994D01*
X186490Y470353D01*
X185848Y469517D01*
X185445Y468544D01*
X185308Y467500D01*
X185445Y466456D01*
X185848Y465483D01*
X186490Y464647D01*
X187325Y464006D01*
X188298Y463603D01*
X189342Y463465D01*
X190387Y463603D01*
X191360Y464006D01*
X192195Y464647D01*
X192836Y465483D01*
X193240Y466456D01*
X193377Y467500D01*
X193240Y468544D01*
X193037Y469032D01*
X203633Y479628D01*
X247209D01*
X260971Y465867D01*
Y422029D01*
X242425D01*
X241819Y422819D01*
X240993Y423453D01*
X240032Y423851D01*
X239000Y423987D01*
X237968Y423851D01*
X237007Y423453D01*
X236181Y422819D01*
X235547Y421993D01*
X235149Y421032D01*
X235013Y420000D01*
X235149Y418968D01*
X235547Y418007D01*
X236181Y417181D01*
X237007Y416547D01*
X237968Y416149D01*
X239000Y416013D01*
X240032Y416149D01*
X240993Y416547D01*
X241819Y417181D01*
X242453Y418007D01*
X242851Y418968D01*
X242851Y418971D01*
X262500D01*
X263085Y419087D01*
X263581Y419419D01*
X263913Y419915D01*
X264029Y420500D01*
Y466500D01*
X263913Y467085D01*
X263581Y467581D01*
X248924Y482239D01*
X248428Y482570D01*
X247843Y482687D01*
D02*
G37*
G36*
X141500Y435530D02*
X140586Y435410D01*
X139735Y435057D01*
X139004Y434496D01*
X138443Y433765D01*
X138090Y432914D01*
X137970Y432000D01*
X138090Y431086D01*
X138443Y430235D01*
X139004Y429504D01*
X139735Y428943D01*
X140586Y428590D01*
X141500Y428470D01*
X142414Y428590D01*
X143265Y428943D01*
X143996Y429504D01*
X144557Y430235D01*
X144655Y430471D01*
X150862D01*
Y428638D01*
X163098D01*
Y435362D01*
X150862D01*
Y433529D01*
X144655D01*
X144557Y433765D01*
X143996Y434496D01*
X143265Y435057D01*
X142414Y435410D01*
X141500Y435530D01*
D02*
G37*
G36*
X239000Y433987D02*
X237968Y433851D01*
X237007Y433453D01*
X236181Y432819D01*
X235547Y431993D01*
X235149Y431032D01*
X235013Y430000D01*
X235149Y428968D01*
X235547Y428007D01*
X236181Y427181D01*
X237007Y426547D01*
X237968Y426149D01*
X239000Y426013D01*
X240032Y426149D01*
X240993Y426547D01*
X241819Y427181D01*
X242453Y428007D01*
X242851Y428968D01*
X242987Y430000D01*
X242851Y431032D01*
X242453Y431993D01*
X241819Y432819D01*
X240993Y433453D01*
X240032Y433851D01*
X239000Y433987D01*
D02*
G37*
G36*
X307500Y429035D02*
X306456Y428897D01*
X305483Y428494D01*
X304647Y427853D01*
X304006Y427017D01*
X303603Y426044D01*
X303466Y425000D01*
X303603Y423956D01*
X304006Y422983D01*
X304647Y422147D01*
X305483Y421506D01*
X306456Y421103D01*
X307500Y420965D01*
X308544Y421103D01*
X309517Y421506D01*
X310353Y422147D01*
X310994Y422983D01*
X311397Y423956D01*
X311535Y425000D01*
X311397Y426044D01*
X310994Y427017D01*
X310353Y427853D01*
X309517Y428494D01*
X308544Y428897D01*
X307500Y429035D01*
D02*
G37*
G36*
X209000Y423987D02*
X207968Y423851D01*
X207007Y423453D01*
X206181Y422819D01*
X205547Y421993D01*
X205355Y421529D01*
X204000D01*
X203415Y421413D01*
X202919Y421081D01*
X202419Y420581D01*
X202087Y420085D01*
X201971Y419500D01*
Y371634D01*
X189588Y359251D01*
X189256Y358755D01*
X189140Y358169D01*
Y353149D01*
X188640Y352979D01*
X188353Y353353D01*
X187517Y353994D01*
X186544Y354397D01*
X185500Y354535D01*
X184456Y354397D01*
X183483Y353994D01*
X182647Y353353D01*
X182006Y352517D01*
X181603Y351544D01*
X181465Y350500D01*
X181603Y349456D01*
X182006Y348483D01*
X182647Y347647D01*
X182721Y347591D01*
X182564Y347091D01*
X179638D01*
Y343910D01*
X179971D01*
Y328331D01*
X178728D01*
Y327285D01*
X174272D01*
Y328331D01*
X168728D01*
Y323181D01*
X168728D01*
Y322819D01*
X168728D01*
Y320982D01*
X144772D01*
Y321831D01*
X142500D01*
Y319453D01*
Y317075D01*
X144772D01*
Y317923D01*
X168728D01*
Y317669D01*
X171000D01*
Y320244D01*
X171500D01*
Y320744D01*
X174272D01*
Y322819D01*
X174272D01*
Y323181D01*
X174272D01*
Y324226D01*
X178728D01*
Y323575D01*
X184272D01*
Y328331D01*
X183029D01*
Y343910D01*
X186362D01*
Y346579D01*
X186544Y346603D01*
X187517Y347006D01*
X188353Y347647D01*
X188640Y348021D01*
X189140Y347851D01*
Y322397D01*
X188319Y321577D01*
X184272D01*
Y322425D01*
X178728D01*
Y317669D01*
X184272D01*
Y318518D01*
X188953D01*
X189538Y318634D01*
X190034Y318966D01*
X191715Y320646D01*
X191867Y320631D01*
X192215Y320477D01*
Y317272D01*
X189669D01*
Y316029D01*
X177878D01*
X174272Y319635D01*
Y319744D01*
X172000D01*
Y317581D01*
X176163Y313419D01*
X176659Y313087D01*
X177244Y312971D01*
X189669D01*
Y311728D01*
X191018D01*
Y308772D01*
X190169D01*
Y306500D01*
X194925D01*
Y308772D01*
X194077D01*
Y311728D01*
X194681D01*
X194819Y311728D01*
Y311728D01*
X195181D01*
X195181Y311728D01*
X196923D01*
Y308772D01*
X196075D01*
Y303228D01*
X196923D01*
Y281547D01*
X197040Y280962D01*
X197371Y280466D01*
X198547Y279290D01*
Y273547D01*
X206453D01*
Y281453D01*
X200710D01*
X199982Y282181D01*
Y303228D01*
X200831D01*
Y308772D01*
X199982D01*
Y311728D01*
X200331D01*
Y317272D01*
X199285D01*
Y325638D01*
X200591D01*
Y328394D01*
Y332362D01*
X200529D01*
Y336228D01*
X201831D01*
Y339412D01*
X211581Y349163D01*
X211913Y349659D01*
X212029Y350244D01*
Y353304D01*
X212517Y353506D01*
X213353Y354147D01*
X213994Y354983D01*
X214397Y355956D01*
X214534Y357000D01*
X214397Y358044D01*
X213994Y359017D01*
X213353Y359853D01*
X212517Y360494D01*
X211544Y360897D01*
X210500Y361034D01*
X209456Y360897D01*
X208483Y360494D01*
X207647Y359853D01*
X207006Y359017D01*
X206603Y358044D01*
X206466Y357000D01*
X206603Y355956D01*
X207006Y354983D01*
X207647Y354147D01*
X208483Y353506D01*
X208971Y353304D01*
Y350878D01*
X199865Y341772D01*
X196681D01*
Y341772D01*
X196319D01*
Y341772D01*
X195273D01*
Y352611D01*
X208500Y365837D01*
Y370000D01*
X209000D01*
Y370500D01*
X212969D01*
X212897Y371044D01*
X212494Y372017D01*
X211853Y372853D01*
X211017Y373494D01*
X210529Y373696D01*
Y406355D01*
X210993Y406547D01*
X211819Y407181D01*
X212453Y408007D01*
X212851Y408968D01*
X212921Y409500D01*
X209000D01*
Y410000D01*
X208500D01*
Y413921D01*
X207968Y413851D01*
X207007Y413453D01*
X206181Y412819D01*
X205547Y411993D01*
X205529Y411950D01*
X205029Y412050D01*
Y417950D01*
X205529Y418050D01*
X205547Y418007D01*
X206181Y417181D01*
X207007Y416547D01*
X207968Y416149D01*
X209000Y416013D01*
X210032Y416149D01*
X210993Y416547D01*
X211819Y417181D01*
X212453Y418007D01*
X212851Y418968D01*
X212987Y420000D01*
X212851Y421032D01*
X212453Y421993D01*
X211819Y422819D01*
X210993Y423453D01*
X210032Y423851D01*
X209000Y423987D01*
D02*
G37*
G36*
X137000Y425530D02*
X136086Y425410D01*
X135235Y425057D01*
X134504Y424496D01*
X133943Y423765D01*
X133590Y422914D01*
X133470Y422000D01*
X133590Y421086D01*
X133943Y420235D01*
X134504Y419504D01*
X135235Y418943D01*
X136086Y418590D01*
X137000Y418470D01*
X137914Y418590D01*
X138765Y418943D01*
X139496Y419504D01*
X140057Y420235D01*
X140155Y420471D01*
X150862D01*
Y418638D01*
X163098D01*
Y425362D01*
X150862D01*
Y423529D01*
X140155D01*
X140057Y423765D01*
X139496Y424496D01*
X138765Y425057D01*
X137914Y425410D01*
X137000Y425530D01*
D02*
G37*
G36*
X118500Y429035D02*
X117456Y428897D01*
X116483Y428494D01*
X115647Y427853D01*
X115006Y427017D01*
X114603Y426044D01*
X114465Y425000D01*
X114603Y423956D01*
X115006Y422983D01*
X115647Y422147D01*
X116483Y421506D01*
X117456Y421103D01*
X118500Y420965D01*
X119544Y421103D01*
X120517Y421506D01*
X121353Y422147D01*
X121994Y422983D01*
X122397Y423956D01*
X122535Y425000D01*
X122397Y426044D01*
X121994Y427017D01*
X121353Y427853D01*
X120517Y428494D01*
X119544Y428897D01*
X118500Y429035D01*
D02*
G37*
%LPD*%
G36*
X197471Y332362D02*
X197409D01*
Y328194D01*
X196675Y327459D01*
X196343Y326963D01*
X196227Y326378D01*
Y317272D01*
X195273D01*
Y336228D01*
X196319D01*
Y336228D01*
X196681D01*
Y336228D01*
X197471D01*
Y332362D01*
D02*
G37*
G36*
X205547Y408007D02*
X206181Y407181D01*
X207007Y406547D01*
X207471Y406355D01*
Y373696D01*
X206983Y373494D01*
X206147Y372853D01*
X205529Y372048D01*
X205476Y372045D01*
X205029Y372300D01*
Y407950D01*
X205529Y408050D01*
X205547Y408007D01*
D02*
G37*
G36*
X204857Y369753D02*
X205010Y369660D01*
X205103Y368956D01*
X205506Y367983D01*
X205859Y367522D01*
X192699Y354362D01*
X192546Y354377D01*
X192199Y354531D01*
Y357536D01*
X204485Y369822D01*
X204857Y369753D01*
D02*
G37*
D10*
X181500Y320047D02*
D03*
Y325953D02*
D03*
X142000Y313547D02*
D03*
Y319453D02*
D03*
D11*
X171500Y325756D02*
D03*
Y320244D02*
D03*
D12*
X197756Y314500D02*
D03*
X192244D02*
D03*
X199256Y339000D02*
D03*
X193744D02*
D03*
D13*
X184378Y345500D02*
D03*
X181622D02*
D03*
D14*
X199000Y327622D02*
D03*
Y330378D02*
D03*
D15*
X198453Y306000D02*
D03*
X192547D02*
D03*
D16*
X156980Y442000D02*
D03*
Y432000D02*
D03*
Y422000D02*
D03*
Y412000D02*
D03*
Y402000D02*
D03*
Y392000D02*
D03*
Y382000D02*
D03*
Y372000D02*
D03*
X192020D02*
D03*
Y382000D02*
D03*
Y392000D02*
D03*
Y402000D02*
D03*
Y412000D02*
D03*
Y422000D02*
D03*
Y432000D02*
D03*
Y442000D02*
D03*
D17*
X146500Y412000D02*
X156980D01*
X145000Y410500D02*
X146500Y412000D01*
X145000Y364000D02*
Y410500D01*
X199256Y339000D02*
X210500Y350244D01*
X199000Y338744D02*
X199256Y339000D01*
X210500Y350244D02*
Y357000D01*
X209000Y370000D02*
Y410000D01*
Y368500D02*
Y370000D01*
X184378Y345500D02*
Y349878D01*
X239000Y440000D02*
X239500Y440500D01*
X179500Y456500D02*
Y467500D01*
Y455000D02*
Y456500D01*
X239000Y420000D02*
X239500Y420500D01*
X262500D01*
Y466500D01*
X247843Y481157D02*
X262500Y466500D01*
X203000Y481157D02*
X247843D01*
X189342Y467500D02*
X203000Y481157D01*
X199185Y467500D02*
X224000D01*
Y425000D02*
Y467500D01*
X209000Y410000D02*
X224000Y425000D01*
X204000Y420000D02*
X209000D01*
X203500Y419500D02*
X204000Y420000D01*
X203500Y371000D02*
Y419500D01*
X190669Y358169D02*
X203500Y371000D01*
X190669Y321764D02*
Y358169D01*
X188953Y320047D02*
X190669Y321764D01*
X181500Y320047D02*
X188953D01*
X193744Y353244D02*
X209000Y368500D01*
X193744Y339000D02*
Y353244D01*
X181500Y345378D02*
X181622Y345500D01*
X181500Y325953D02*
Y345378D01*
X199000Y330378D02*
Y338744D01*
X197756Y326378D02*
X199000Y327622D01*
X197756Y314500D02*
Y326378D01*
X192547Y306000D02*
Y314803D01*
X192500Y305953D02*
X192547Y306000D01*
X192500Y277500D02*
Y305953D01*
X198453Y281547D02*
X202500Y277500D01*
X198453Y281547D02*
Y306000D01*
Y313803D01*
X192547Y314803D02*
X193744Y316000D01*
Y339000D01*
X171500Y325756D02*
X181303D01*
X192244Y314500D02*
X192244Y314500D01*
X177244Y314500D02*
X192244D01*
X171500Y320244D02*
X177244Y314500D01*
X142000Y319453D02*
X170709D01*
X207000Y432000D02*
X209000Y430000D01*
X192020Y432000D02*
X207000D01*
X192020Y412000D02*
Y422000D01*
Y432000D01*
Y442000D01*
X238500Y410000D02*
X239000D01*
X225500Y397000D02*
X238500Y410000D01*
X142000Y306000D02*
X142000Y306000D01*
Y313547D01*
X141500Y432000D02*
X156980D01*
X137000Y422000D02*
X156980D01*
X155980Y441000D02*
X156980Y442000D01*
X137000Y441000D02*
X155980D01*
D18*
X145000Y364000D02*
D03*
X210500Y357000D02*
D03*
X209000Y370000D02*
D03*
X185500Y350500D02*
D03*
X179500Y456500D02*
D03*
X224000Y467500D02*
D03*
X225500Y397000D02*
D03*
D19*
X262216Y373693D02*
D03*
Y330386D02*
D03*
D20*
X244500Y352236D02*
D03*
Y337472D02*
D03*
Y367000D02*
D03*
X199185Y467500D02*
D03*
X189342D02*
D03*
X179500D02*
D03*
X307500Y425000D02*
D03*
Y435000D02*
D03*
Y445000D02*
D03*
Y455000D02*
D03*
Y465000D02*
D03*
Y365000D02*
D03*
Y355000D02*
D03*
Y345000D02*
D03*
Y335000D02*
D03*
Y325000D02*
D03*
Y385000D02*
D03*
Y375000D02*
D03*
X118500Y435000D02*
D03*
Y425000D02*
D03*
Y415000D02*
D03*
Y405000D02*
D03*
Y395000D02*
D03*
Y455000D02*
D03*
Y445000D02*
D03*
X117500Y369000D02*
D03*
Y359000D02*
D03*
Y349000D02*
D03*
Y339000D02*
D03*
Y329000D02*
D03*
Y319000D02*
D03*
Y309000D02*
D03*
Y299000D02*
D03*
Y289000D02*
D03*
D21*
X192500Y277500D02*
D03*
X209000Y430000D02*
D03*
Y420000D02*
D03*
Y410000D02*
D03*
X239000Y440000D02*
D03*
Y430000D02*
D03*
Y420000D02*
D03*
Y410000D02*
D03*
D22*
X202500Y277500D02*
D03*
X209000Y440000D02*
D03*
D23*
X141000Y289500D02*
D03*
X151000D02*
D03*
D24*
X307500Y415000D02*
D03*
Y395000D02*
D03*
X118500Y465000D02*
D03*
X117500Y379000D02*
D03*
D25*
X142000Y306000D02*
D03*
X141500Y432000D02*
D03*
X137000Y422000D02*
D03*
Y441000D02*
D03*
M02*
