M48
;Layer_Color=9474304
;FILE_FORMAT=2:5
INCH,LZ
;TYPE=PLATED
T1F00S00C0.02800
T2F00S00C0.03000
T3F00S00C0.03150
T4F00S00C0.03543
T5F00S00C0.03937
%
T01
X0142Y0306
X0137Y0422
X01415Y0432
X0137Y0441
T02
X01175Y0289
X01175Y0299
X01175Y0309
X01175Y0319
X01175Y0329
X01175Y0339
X01175Y0349
X01175Y0359
X01175Y0369
X01175Y0379
X01185Y0395
X01185Y0405
X01185Y0415
X01185Y0425
X01185Y0435
X01185Y0445
X01185Y0455
X01185Y0465
X0145Y0364
X01855Y03505
X02105Y0357
X0209Y037
X02255Y0397
X0224Y04675
X01795Y04565
X03075Y0455
X03075Y0445
X03075Y0435
X03075Y0425
X03075Y0415
X03075Y0395
X03075Y0385
X03075Y0375
X03075Y0365
X03075Y0355
X03075Y0345
X03075Y0335
X03075Y0325
X03075Y0465
T03
X0141Y02895
X0151Y02895
X01795Y04675
X0189342Y04675
X0199185Y04675
T04
X01925Y02775
X02025Y02775
X0209Y041
X0209Y042
X0209Y043
X0209Y044
X0239Y044
X0239Y043
X0239Y042
X0239Y041
T05
X02445Y0337472
X02445Y0352236
X02445Y0367
M30
