G04 Layer_Physical_Order=1*
G04 Layer_Color=255*
%FSLAX25Y25*%
%MOIN*%
G70*
G01*
G75*
%ADD10C,0.02000*%
%ADD11C,0.07500*%
%ADD12C,0.07512*%
%ADD13C,0.08000*%
%ADD14C,0.07000*%
%ADD15R,0.13030X0.15000*%
%ADD16R,0.13080X0.15000*%
%ADD17R,0.10012X0.14000*%
%ADD18R,0.10068X0.14011*%
%ADD19O,0.05512X0.07512*%
%ADD20R,0.07512X0.07512*%
%ADD21R,0.07512X0.07512*%
%ADD22C,0.07000*%
G36*
X476000Y395000D02*
X477500Y393500D01*
Y345500D01*
X478000D01*
X489500Y334000D01*
X602000D01*
X655500Y280500D01*
Y202000D01*
Y201500D01*
X605000Y151000D01*
X533500D01*
X510000Y174500D01*
X222500D01*
Y388500D01*
X222000Y389000D01*
X228500Y395500D01*
X476000D01*
Y395000D01*
D02*
G37*
%LPC*%
G36*
X257815Y269231D02*
X257073Y269133D01*
X255917Y268654D01*
X254923Y267892D01*
X254161Y266898D01*
X253681Y265741D01*
X253584Y265000D01*
X257815D01*
Y269231D01*
D02*
G37*
G36*
X278000Y269297D02*
X276759Y269133D01*
X275602Y268654D01*
X274608Y267892D01*
X273846Y266898D01*
X273620Y266353D01*
X272537D01*
X272312Y266898D01*
X271549Y267892D01*
X270556Y268654D01*
X269399Y269133D01*
X268157Y269297D01*
X266916Y269133D01*
X265759Y268654D01*
X264766Y267892D01*
X264003Y266898D01*
X263777Y266354D01*
X262695D01*
X262469Y266898D01*
X261707Y267892D01*
X260714Y268654D01*
X259557Y269133D01*
X258815Y269231D01*
Y264500D01*
Y259769D01*
X259557Y259866D01*
X260714Y260346D01*
X261707Y261108D01*
X262469Y262102D01*
X262695Y262647D01*
X263777D01*
X264003Y262102D01*
X264766Y261108D01*
X265759Y260346D01*
X266916Y259866D01*
X268157Y259703D01*
X269399Y259866D01*
X270556Y260346D01*
X271549Y261108D01*
X272312Y262102D01*
X272537Y262647D01*
X273620D01*
X273846Y262102D01*
X274608Y261108D01*
X275602Y260346D01*
X276759Y259866D01*
X278000Y259703D01*
X279241Y259866D01*
X280399Y260346D01*
X281392Y261108D01*
X282154Y262102D01*
X282633Y263259D01*
X282797Y264500D01*
X282633Y265741D01*
X282154Y266898D01*
X281392Y267892D01*
X280399Y268654D01*
X279241Y269133D01*
X278000Y269297D01*
D02*
G37*
G36*
X308500Y323039D02*
X307325Y322884D01*
X306231Y322431D01*
X305291Y321709D01*
X304569Y320769D01*
X304116Y319675D01*
X303961Y318500D01*
X304116Y317325D01*
X304569Y316231D01*
X305291Y315291D01*
X306231Y314569D01*
X306461Y314474D01*
Y295026D01*
X306231Y294931D01*
X305291Y294209D01*
X304569Y293269D01*
X304116Y292175D01*
X303961Y291000D01*
X304116Y289825D01*
X304569Y288731D01*
X305291Y287791D01*
X306231Y287069D01*
X307325Y286616D01*
X308500Y286461D01*
X309675Y286616D01*
X310769Y287069D01*
X311709Y287791D01*
X312431Y288731D01*
X312884Y289825D01*
X313039Y291000D01*
X312884Y292175D01*
X312431Y293269D01*
X311709Y294209D01*
X310769Y294931D01*
X310539Y295026D01*
Y314474D01*
X310769Y314569D01*
X311709Y315291D01*
X312431Y316231D01*
X312884Y317325D01*
X313039Y318500D01*
X312884Y319675D01*
X312431Y320769D01*
X311709Y321709D01*
X310769Y322431D01*
X309675Y322884D01*
X308500Y323039D01*
D02*
G37*
G36*
X483354Y255640D02*
X482113Y255476D01*
X480956Y254997D01*
X479962Y254235D01*
X479200Y253241D01*
X478721Y252084D01*
X478557Y250843D01*
X478721Y249601D01*
X479200Y248444D01*
X479962Y247451D01*
X480956Y246688D01*
X482113Y246209D01*
X483354Y246046D01*
X484596Y246209D01*
X485753Y246688D01*
X486746Y247451D01*
X487509Y248444D01*
X487988Y249601D01*
X488151Y250843D01*
X487988Y252084D01*
X487509Y253241D01*
X486746Y254235D01*
X485753Y254997D01*
X484596Y255476D01*
X483354Y255640D01*
D02*
G37*
G36*
X257815Y264000D02*
X253584D01*
X253681Y263259D01*
X254161Y262102D01*
X254923Y261108D01*
X255917Y260346D01*
X257073Y259866D01*
X257815Y259769D01*
Y264000D01*
D02*
G37*
G36*
X466500Y273291D02*
X465260Y273128D01*
X464105Y272649D01*
X463112Y271888D01*
X462351Y270896D01*
X461872Y269740D01*
X461709Y268500D01*
X461872Y267260D01*
X462351Y266105D01*
X463112Y265112D01*
X464105Y264351D01*
X465260Y263872D01*
X466500Y263709D01*
X467740Y263872D01*
X468895Y264351D01*
X469888Y265112D01*
X470649Y266105D01*
X471128Y267260D01*
X471291Y268500D01*
X471128Y269740D01*
X470649Y270896D01*
X469888Y271888D01*
X468895Y272649D01*
X467740Y273128D01*
X466500Y273291D01*
D02*
G37*
G36*
X422000Y302797D02*
X420758Y302634D01*
X419601Y302154D01*
X418608Y301392D01*
X417846Y300398D01*
X417367Y299241D01*
X417203Y298000D01*
X417367Y296759D01*
X417846Y295602D01*
X418608Y294608D01*
X419601Y293846D01*
X420758Y293367D01*
X422000Y293203D01*
X423242Y293367D01*
X424399Y293846D01*
X425392Y294608D01*
X426154Y295602D01*
X426634Y296759D01*
X426797Y298000D01*
X426634Y299241D01*
X426154Y300398D01*
X425392Y301392D01*
X424399Y302154D01*
X423242Y302634D01*
X422000Y302797D01*
D02*
G37*
G36*
X472000D02*
X470758Y302634D01*
X469601Y302154D01*
X468608Y301392D01*
X467846Y300398D01*
X467367Y299241D01*
X467203Y298000D01*
X467367Y296759D01*
X467846Y295602D01*
X468608Y294608D01*
X469601Y293846D01*
X470758Y293367D01*
X472000Y293203D01*
X473242Y293367D01*
X474399Y293846D01*
X475392Y294608D01*
X476154Y295602D01*
X476634Y296759D01*
X476797Y298000D01*
X476634Y299241D01*
X476154Y300398D01*
X475392Y301392D01*
X474399Y302154D01*
X473242Y302634D01*
X472000Y302797D01*
D02*
G37*
G36*
X356000Y303297D02*
X354759Y303134D01*
X353602Y302654D01*
X352608Y301892D01*
X351846Y300899D01*
X351366Y299742D01*
X351203Y298500D01*
X351366Y297258D01*
X351846Y296101D01*
X352608Y295108D01*
X353602Y294346D01*
X354759Y293866D01*
X356000Y293703D01*
X357242Y293866D01*
X358399Y294346D01*
X359392Y295108D01*
X360154Y296101D01*
X360633Y297258D01*
X360797Y298500D01*
X360633Y299742D01*
X360154Y300899D01*
X359392Y301892D01*
X358399Y302654D01*
X357242Y303134D01*
X356000Y303297D01*
D02*
G37*
G36*
X254000Y297788D02*
X253019Y297659D01*
X252106Y297281D01*
X251321Y296679D01*
X250719Y295894D01*
X250341Y294981D01*
X250212Y294000D01*
Y292000D01*
X250341Y291020D01*
X250719Y290106D01*
X251321Y289321D01*
X252106Y288719D01*
X253019Y288341D01*
X254000Y288212D01*
X254980Y288341D01*
X255894Y288719D01*
X256679Y289321D01*
X257281Y290106D01*
X257659Y291020D01*
X257788Y292000D01*
Y294000D01*
X257659Y294981D01*
X257281Y295894D01*
X256679Y296679D01*
X255894Y297281D01*
X254980Y297659D01*
X254000Y297788D01*
D02*
G37*
G36*
X264000D02*
X263019Y297659D01*
X262106Y297281D01*
X261321Y296679D01*
X260719Y295894D01*
X260341Y294981D01*
X260212Y294000D01*
Y292000D01*
X260341Y291020D01*
X260719Y290106D01*
X261321Y289321D01*
X262106Y288719D01*
X263019Y288341D01*
X264000Y288212D01*
X264981Y288341D01*
X265894Y288719D01*
X266679Y289321D01*
X267281Y290106D01*
X267659Y291020D01*
X267788Y292000D01*
Y294000D01*
X267659Y294981D01*
X267281Y295894D01*
X266679Y296679D01*
X265894Y297281D01*
X264981Y297659D01*
X264000Y297788D01*
D02*
G37*
G36*
X332500Y299791D02*
X331260Y299628D01*
X330104Y299149D01*
X329112Y298388D01*
X328351Y297395D01*
X327872Y296240D01*
X327709Y295000D01*
X327872Y293760D01*
X328351Y292604D01*
X329112Y291612D01*
X330104Y290851D01*
X331260Y290372D01*
X332500Y290209D01*
X333740Y290372D01*
X334895Y290851D01*
X335888Y291612D01*
X336649Y292604D01*
X337128Y293760D01*
X337291Y295000D01*
X337128Y296240D01*
X336649Y297395D01*
X335888Y298388D01*
X334895Y299149D01*
X333740Y299628D01*
X332500Y299791D01*
D02*
G37*
G36*
X483854Y237857D02*
Y233626D01*
X488086D01*
X487988Y234367D01*
X487509Y235525D01*
X486746Y236518D01*
X485753Y237280D01*
X484596Y237759D01*
X483854Y237857D01*
D02*
G37*
G36*
X409500Y195797D02*
X408258Y195633D01*
X407101Y195154D01*
X406108Y194392D01*
X405346Y193398D01*
X405041Y192663D01*
X403959D01*
X403654Y193398D01*
X402892Y194392D01*
X401898Y195154D01*
X400741Y195633D01*
X399500Y195797D01*
X398258Y195633D01*
X397101Y195154D01*
X396108Y194392D01*
X395346Y193398D01*
X395041Y192663D01*
X393959D01*
X393654Y193398D01*
X392892Y194392D01*
X391898Y195154D01*
X390741Y195633D01*
X389500Y195797D01*
X388259Y195633D01*
X387102Y195154D01*
X386108Y194392D01*
X385346Y193398D01*
X385041Y192663D01*
X383959D01*
X383654Y193398D01*
X382892Y194392D01*
X381898Y195154D01*
X380742Y195633D01*
X379500Y195797D01*
X378258Y195633D01*
X377101Y195154D01*
X376108Y194392D01*
X375346Y193398D01*
X375041Y192663D01*
X373959D01*
X373654Y193398D01*
X372892Y194392D01*
X371899Y195154D01*
X370742Y195633D01*
X369500Y195797D01*
X368259Y195633D01*
X367102Y195154D01*
X366108Y194392D01*
X365346Y193398D01*
X365041Y192663D01*
X363959D01*
X363654Y193398D01*
X362892Y194392D01*
X361898Y195154D01*
X360741Y195633D01*
X359500Y195797D01*
X358259Y195633D01*
X357101Y195154D01*
X356108Y194392D01*
X355346Y193398D01*
X355041Y192663D01*
X353959D01*
X353654Y193398D01*
X352892Y194392D01*
X351899Y195154D01*
X350742Y195633D01*
X349500Y195797D01*
X348258Y195633D01*
X347101Y195154D01*
X346108Y194392D01*
X345346Y193398D01*
X345041Y192663D01*
X343959D01*
X343654Y193398D01*
X342892Y194392D01*
X341898Y195154D01*
X340741Y195633D01*
X339500Y195797D01*
X338259Y195633D01*
X337102Y195154D01*
X336108Y194392D01*
X335346Y193398D01*
X335041Y192663D01*
X333959D01*
X333654Y193398D01*
X332892Y194392D01*
X331898Y195154D01*
X330742Y195633D01*
X329500Y195797D01*
X328258Y195633D01*
X327101Y195154D01*
X326108Y194392D01*
X325346Y193398D01*
X325256Y193182D01*
X324256Y193380D01*
Y195756D01*
X314744D01*
Y186244D01*
X324256D01*
Y188619D01*
X325256Y188818D01*
X325346Y188602D01*
X326108Y187608D01*
X327101Y186846D01*
X328258Y186366D01*
X329500Y186203D01*
X330742Y186366D01*
X331898Y186846D01*
X332892Y187608D01*
X333654Y188602D01*
X333959Y189337D01*
X335041D01*
X335346Y188602D01*
X336108Y187608D01*
X337102Y186846D01*
X338259Y186366D01*
X339500Y186203D01*
X340741Y186366D01*
X341898Y186846D01*
X342892Y187608D01*
X343654Y188602D01*
X343959Y189337D01*
X345041D01*
X345346Y188602D01*
X346108Y187608D01*
X347101Y186846D01*
X348258Y186366D01*
X349500Y186203D01*
X350742Y186366D01*
X351899Y186846D01*
X352892Y187608D01*
X353654Y188602D01*
X353959Y189337D01*
X355041D01*
X355346Y188602D01*
X356108Y187608D01*
X357101Y186846D01*
X358259Y186366D01*
X359500Y186203D01*
X360741Y186366D01*
X361898Y186846D01*
X362892Y187608D01*
X363654Y188602D01*
X363959Y189337D01*
X365041D01*
X365346Y188602D01*
X366108Y187608D01*
X367102Y186846D01*
X368259Y186366D01*
X369500Y186203D01*
X370742Y186366D01*
X371899Y186846D01*
X372892Y187608D01*
X373654Y188602D01*
X373959Y189337D01*
X375041D01*
X375346Y188602D01*
X376108Y187608D01*
X377101Y186846D01*
X378258Y186366D01*
X379500Y186203D01*
X380742Y186366D01*
X381898Y186846D01*
X382892Y187608D01*
X383654Y188602D01*
X383959Y189337D01*
X385041D01*
X385346Y188602D01*
X386108Y187608D01*
X387102Y186846D01*
X388259Y186366D01*
X389500Y186203D01*
X390741Y186366D01*
X391898Y186846D01*
X392892Y187608D01*
X393654Y188602D01*
X393959Y189337D01*
X395041D01*
X395346Y188602D01*
X396108Y187608D01*
X397101Y186846D01*
X398258Y186366D01*
X399500Y186203D01*
X400741Y186366D01*
X401898Y186846D01*
X402892Y187608D01*
X403654Y188602D01*
X403959Y189337D01*
X405041D01*
X405346Y188602D01*
X406108Y187608D01*
X407101Y186846D01*
X408258Y186366D01*
X409500Y186203D01*
X410742Y186366D01*
X411899Y186846D01*
X412892Y187608D01*
X413654Y188602D01*
X414134Y189759D01*
X414297Y191000D01*
X414134Y192242D01*
X413654Y193398D01*
X412892Y194392D01*
X411899Y195154D01*
X410742Y195633D01*
X409500Y195797D01*
D02*
G37*
G36*
X262000Y207291D02*
X260760Y207128D01*
X259605Y206649D01*
X258612Y205888D01*
X257851Y204895D01*
X257372Y203740D01*
X257209Y202500D01*
X257372Y201260D01*
X257851Y200104D01*
X258612Y199112D01*
X259605Y198351D01*
X260760Y197872D01*
X262000Y197709D01*
X263240Y197872D01*
X264395Y198351D01*
X265388Y199112D01*
X266149Y200104D01*
X266628Y201260D01*
X266791Y202500D01*
X266628Y203740D01*
X266149Y204895D01*
X265388Y205888D01*
X264395Y206649D01*
X263240Y207128D01*
X262000Y207291D01*
D02*
G37*
G36*
X253500Y212500D02*
X249269D01*
X249366Y211758D01*
X249846Y210601D01*
X250608Y209608D01*
X251602Y208846D01*
X252759Y208366D01*
X253500Y208269D01*
Y212500D01*
D02*
G37*
G36*
X238256Y195756D02*
X228744D01*
Y186244D01*
X238256D01*
Y188619D01*
X239256Y188818D01*
X239346Y188602D01*
X240108Y187608D01*
X241102Y186846D01*
X242259Y186366D01*
X243000Y186269D01*
Y191000D01*
Y195731D01*
X242259Y195633D01*
X241102Y195154D01*
X240108Y194392D01*
X239346Y193398D01*
X239256Y193182D01*
X238256Y193380D01*
Y195756D01*
D02*
G37*
G36*
X253000Y195731D02*
X252258Y195633D01*
X251101Y195154D01*
X250108Y194392D01*
X249346Y193398D01*
X249041Y192663D01*
X247959D01*
X247654Y193398D01*
X246892Y194392D01*
X245899Y195154D01*
X244742Y195633D01*
X244000Y195731D01*
Y191000D01*
Y186269D01*
X244742Y186366D01*
X245899Y186846D01*
X246892Y187608D01*
X247654Y188602D01*
X247959Y189337D01*
X249041D01*
X249346Y188602D01*
X250108Y187608D01*
X251101Y186846D01*
X252258Y186366D01*
X253000Y186269D01*
Y191000D01*
Y195731D01*
D02*
G37*
G36*
X303500Y195797D02*
X302258Y195633D01*
X301101Y195154D01*
X300108Y194392D01*
X299346Y193398D01*
X299041Y192663D01*
X297959D01*
X297654Y193398D01*
X296892Y194392D01*
X295899Y195154D01*
X294742Y195633D01*
X293500Y195797D01*
X292259Y195633D01*
X291102Y195154D01*
X290108Y194392D01*
X289346Y193398D01*
X289041Y192663D01*
X287959D01*
X287654Y193398D01*
X286892Y194392D01*
X285898Y195154D01*
X284741Y195633D01*
X283500Y195797D01*
X282259Y195633D01*
X281101Y195154D01*
X280108Y194392D01*
X279346Y193398D01*
X279041Y192663D01*
X277959D01*
X277654Y193398D01*
X276892Y194392D01*
X275899Y195154D01*
X274742Y195633D01*
X273500Y195797D01*
X272258Y195633D01*
X271101Y195154D01*
X270108Y194392D01*
X269346Y193398D01*
X269041Y192663D01*
X267959D01*
X267654Y193398D01*
X266892Y194392D01*
X265898Y195154D01*
X264741Y195633D01*
X263500Y195797D01*
X262259Y195633D01*
X261102Y195154D01*
X260108Y194392D01*
X259346Y193398D01*
X259041Y192663D01*
X257959D01*
X257654Y193398D01*
X256892Y194392D01*
X255898Y195154D01*
X254742Y195633D01*
X254000Y195731D01*
Y191000D01*
Y186269D01*
X254742Y186366D01*
X255898Y186846D01*
X256892Y187608D01*
X257654Y188602D01*
X257959Y189337D01*
X259041D01*
X259346Y188602D01*
X260108Y187608D01*
X261102Y186846D01*
X262259Y186366D01*
X263500Y186203D01*
X264741Y186366D01*
X265898Y186846D01*
X266892Y187608D01*
X267654Y188602D01*
X267959Y189337D01*
X269041D01*
X269346Y188602D01*
X270108Y187608D01*
X271101Y186846D01*
X272258Y186366D01*
X273500Y186203D01*
X274742Y186366D01*
X275899Y186846D01*
X276892Y187608D01*
X277654Y188602D01*
X277959Y189337D01*
X279041D01*
X279346Y188602D01*
X280108Y187608D01*
X281101Y186846D01*
X282259Y186366D01*
X283500Y186203D01*
X284741Y186366D01*
X285898Y186846D01*
X286892Y187608D01*
X287654Y188602D01*
X287959Y189337D01*
X289041D01*
X289346Y188602D01*
X290108Y187608D01*
X291102Y186846D01*
X292259Y186366D01*
X293500Y186203D01*
X294742Y186366D01*
X295899Y186846D01*
X296892Y187608D01*
X297654Y188602D01*
X297959Y189337D01*
X299041D01*
X299346Y188602D01*
X300108Y187608D01*
X301101Y186846D01*
X302258Y186366D01*
X303500Y186203D01*
X304742Y186366D01*
X305898Y186846D01*
X306892Y187608D01*
X307654Y188602D01*
X308134Y189759D01*
X308297Y191000D01*
X308134Y192242D01*
X307654Y193398D01*
X306892Y194392D01*
X305898Y195154D01*
X304742Y195633D01*
X303500Y195797D01*
D02*
G37*
G36*
X482854Y232626D02*
X478623D01*
X478721Y231885D01*
X479200Y230728D01*
X479962Y229734D01*
X480956Y228972D01*
X482113Y228492D01*
X482854Y228395D01*
Y232626D01*
D02*
G37*
G36*
X488086D02*
X483854D01*
Y228395D01*
X484596Y228492D01*
X485753Y228972D01*
X486746Y229734D01*
X487509Y230728D01*
X487988Y231885D01*
X488086Y232626D01*
D02*
G37*
G36*
X482854Y237857D02*
X482113Y237759D01*
X480956Y237280D01*
X479962Y236518D01*
X479200Y235525D01*
X478721Y234367D01*
X478623Y233626D01*
X482854D01*
Y237857D01*
D02*
G37*
G36*
X258731Y212500D02*
X254500D01*
Y208269D01*
X255241Y208366D01*
X256399Y208846D01*
X257392Y209608D01*
X258154Y210601D01*
X258633Y211758D01*
X258731Y212500D01*
D02*
G37*
G36*
X236000Y220291D02*
X234760Y220128D01*
X233605Y219649D01*
X232612Y218888D01*
X231851Y217896D01*
X231372Y216740D01*
X231209Y215500D01*
X231372Y214260D01*
X231851Y213105D01*
X232612Y212112D01*
X233605Y211351D01*
X234760Y210872D01*
X236000Y210709D01*
X237240Y210872D01*
X238396Y211351D01*
X239388Y212112D01*
X240149Y213105D01*
X240628Y214260D01*
X240791Y215500D01*
X240628Y216740D01*
X240149Y217896D01*
X239388Y218888D01*
X238396Y219649D01*
X237240Y220128D01*
X236000Y220291D01*
D02*
G37*
G36*
X254000Y227797D02*
X252759Y227634D01*
X251602Y227154D01*
X250608Y226392D01*
X249846Y225398D01*
X249366Y224241D01*
X249203Y223000D01*
X249366Y221759D01*
X249846Y220602D01*
X250608Y219608D01*
X251602Y218846D01*
X252337Y218541D01*
Y217459D01*
X251602Y217154D01*
X250608Y216392D01*
X249846Y215399D01*
X249366Y214242D01*
X249269Y213500D01*
X258731D01*
X258633Y214242D01*
X258154Y215399D01*
X257392Y216392D01*
X256399Y217154D01*
X255663Y217459D01*
Y218541D01*
X256399Y218846D01*
X257392Y219608D01*
X258154Y220602D01*
X258633Y221759D01*
X258797Y223000D01*
X258633Y224241D01*
X258154Y225398D01*
X257392Y226392D01*
X256399Y227154D01*
X255241Y227634D01*
X254000Y227797D01*
D02*
G37*
G36*
X406000Y303297D02*
X404759Y303134D01*
X403602Y302654D01*
X402608Y301892D01*
X401846Y300899D01*
X401367Y299742D01*
X401203Y298500D01*
X401367Y297258D01*
X401846Y296101D01*
X402608Y295108D01*
X403602Y294346D01*
X404759Y293866D01*
X406000Y293703D01*
X407241Y293866D01*
X408398Y294346D01*
X409392Y295108D01*
X410154Y296101D01*
X410634Y297258D01*
X410797Y298500D01*
X410634Y299742D01*
X410154Y300899D01*
X409392Y301892D01*
X408398Y302654D01*
X407241Y303134D01*
X406000Y303297D01*
D02*
G37*
G36*
X497500Y329977D02*
X496695Y329871D01*
X495478Y329367D01*
X494434Y328566D01*
X493633Y327522D01*
X493129Y326305D01*
X493023Y325500D01*
X497500D01*
Y329977D01*
D02*
G37*
G36*
X498500D02*
Y325500D01*
X502977D01*
X502871Y326305D01*
X502367Y327522D01*
X501566Y328566D01*
X500522Y329367D01*
X499305Y329871D01*
X498500Y329977D01*
D02*
G37*
G36*
X447134Y333731D02*
X446392Y333633D01*
X445235Y333154D01*
X444242Y332392D01*
X443479Y331399D01*
X443000Y330241D01*
X442903Y329500D01*
X447134D01*
Y333731D01*
D02*
G37*
G36*
X369028Y328731D02*
X368286Y328633D01*
X367129Y328154D01*
X366136Y327392D01*
X365373Y326398D01*
X364894Y325241D01*
X364796Y324500D01*
X369028D01*
Y328731D01*
D02*
G37*
G36*
X370028D02*
Y324500D01*
X374259D01*
X374161Y325241D01*
X373682Y326398D01*
X372920Y327392D01*
X371926Y328154D01*
X370769Y328633D01*
X370028Y328731D01*
D02*
G37*
G36*
X274000Y327797D02*
X272759Y327634D01*
X271602Y327154D01*
X270608Y326392D01*
X269846Y325398D01*
X269541Y324663D01*
X268459D01*
X268154Y325398D01*
X267392Y326392D01*
X266399Y327154D01*
X265242Y327634D01*
X264000Y327797D01*
X262758Y327634D01*
X261601Y327154D01*
X260608Y326392D01*
X259846Y325398D01*
X259541Y324663D01*
X258459D01*
X258154Y325398D01*
X257392Y326392D01*
X256399Y327154D01*
X255241Y327634D01*
X254500Y327731D01*
Y323000D01*
Y318269D01*
X255241Y318367D01*
X256399Y318846D01*
X257392Y319608D01*
X258154Y320602D01*
X258459Y321337D01*
X259541D01*
X259846Y320602D01*
X260608Y319608D01*
X261601Y318846D01*
X262758Y318367D01*
X264000Y318203D01*
X265242Y318367D01*
X266399Y318846D01*
X267392Y319608D01*
X268154Y320602D01*
X268459Y321337D01*
X269541D01*
X269846Y320602D01*
X270608Y319608D01*
X271602Y318846D01*
X272759Y318367D01*
X274000Y318203D01*
X275241Y318367D01*
X276398Y318846D01*
X277392Y319608D01*
X278154Y320602D01*
X278244Y320818D01*
X279244Y320620D01*
Y318244D01*
X288756D01*
Y327756D01*
X279244D01*
Y325380D01*
X278244Y325182D01*
X278154Y325398D01*
X277392Y326392D01*
X276398Y327154D01*
X275241Y327634D01*
X274000Y327797D01*
D02*
G37*
G36*
X448134Y333731D02*
Y329500D01*
X452365D01*
X452267Y330241D01*
X451788Y331399D01*
X451026Y332392D01*
X450032Y333154D01*
X448875Y333633D01*
X448134Y333731D01*
D02*
G37*
G36*
X469347Y376280D02*
X454267D01*
Y359280D01*
X469347D01*
Y376280D01*
D02*
G37*
G36*
X274000Y385797D02*
X272759Y385633D01*
X271602Y385154D01*
X270608Y384392D01*
X269846Y383399D01*
X269541Y382663D01*
X268459D01*
X268154Y383399D01*
X267392Y384392D01*
X266399Y385154D01*
X265242Y385633D01*
X264000Y385797D01*
X262758Y385633D01*
X261601Y385154D01*
X260608Y384392D01*
X259846Y383399D01*
X259541Y382663D01*
X258459D01*
X258154Y383399D01*
X257392Y384392D01*
X256399Y385154D01*
X255241Y385633D01*
X254000Y385797D01*
X252759Y385633D01*
X251602Y385154D01*
X250608Y384392D01*
X249846Y383399D01*
X249541Y382663D01*
X248459D01*
X248154Y383399D01*
X247392Y384392D01*
X246398Y385154D01*
X245241Y385633D01*
X244000Y385797D01*
X242758Y385633D01*
X241601Y385154D01*
X240608Y384392D01*
X239846Y383399D01*
X239541Y382663D01*
X238459D01*
X238154Y383399D01*
X237392Y384392D01*
X236399Y385154D01*
X235242Y385633D01*
X234000Y385797D01*
X232758Y385633D01*
X231602Y385154D01*
X230608Y384392D01*
X229846Y383399D01*
X229366Y382242D01*
X229203Y381000D01*
X229366Y379759D01*
X229846Y378602D01*
X230608Y377608D01*
X231602Y376846D01*
X232758Y376366D01*
X234000Y376203D01*
X235242Y376366D01*
X236399Y376846D01*
X237392Y377608D01*
X238154Y378602D01*
X238459Y379337D01*
X239541D01*
X239846Y378602D01*
X240608Y377608D01*
X241601Y376846D01*
X242758Y376366D01*
X244000Y376203D01*
X245241Y376366D01*
X246398Y376846D01*
X247392Y377608D01*
X248154Y378602D01*
X248459Y379337D01*
X249541D01*
X249846Y378602D01*
X250608Y377608D01*
X251602Y376846D01*
X252759Y376366D01*
X254000Y376203D01*
X255241Y376366D01*
X256399Y376846D01*
X257392Y377608D01*
X258154Y378602D01*
X258459Y379337D01*
X259541D01*
X259846Y378602D01*
X260608Y377608D01*
X261601Y376846D01*
X262758Y376366D01*
X264000Y376203D01*
X265242Y376366D01*
X266399Y376846D01*
X267392Y377608D01*
X268154Y378602D01*
X268459Y379337D01*
X269541D01*
X269846Y378602D01*
X270608Y377608D01*
X271602Y376846D01*
X272759Y376366D01*
X274000Y376203D01*
X275241Y376366D01*
X276398Y376846D01*
X277392Y377608D01*
X278154Y378602D01*
X278244Y378818D01*
X279244Y378620D01*
Y376244D01*
X288756D01*
Y385756D01*
X279244D01*
Y383381D01*
X278244Y383182D01*
X278154Y383399D01*
X277392Y384392D01*
X276398Y385154D01*
X275241Y385633D01*
X274000Y385797D01*
D02*
G37*
G36*
X373000D02*
X371759Y385633D01*
X370602Y385154D01*
X369608Y384392D01*
X368846Y383399D01*
X368541Y382663D01*
X367459D01*
X367154Y383399D01*
X366392Y384392D01*
X365399Y385154D01*
X364242Y385633D01*
X363000Y385797D01*
X361758Y385633D01*
X360601Y385154D01*
X359608Y384392D01*
X358846Y383399D01*
X358541Y382663D01*
X357459D01*
X357154Y383399D01*
X356392Y384392D01*
X355399Y385154D01*
X354241Y385633D01*
X353000Y385797D01*
X351759Y385633D01*
X350602Y385154D01*
X349608Y384392D01*
X348846Y383399D01*
X348541Y382663D01*
X347459D01*
X347154Y383399D01*
X346392Y384392D01*
X345398Y385154D01*
X344241Y385633D01*
X343000Y385797D01*
X341758Y385633D01*
X340601Y385154D01*
X339608Y384392D01*
X338846Y383399D01*
X338541Y382663D01*
X337459D01*
X337154Y383399D01*
X336392Y384392D01*
X335399Y385154D01*
X334242Y385633D01*
X333000Y385797D01*
X331758Y385633D01*
X330602Y385154D01*
X329608Y384392D01*
X328846Y383399D01*
X328541Y382663D01*
X327459D01*
X327154Y383399D01*
X326392Y384392D01*
X325398Y385154D01*
X324241Y385633D01*
X323000Y385797D01*
X321759Y385633D01*
X320602Y385154D01*
X319608Y384392D01*
X318846Y383399D01*
X318541Y382663D01*
X317459D01*
X317154Y383399D01*
X316392Y384392D01*
X315399Y385154D01*
X314242Y385633D01*
X313000Y385797D01*
X311758Y385633D01*
X310601Y385154D01*
X309608Y384392D01*
X308846Y383399D01*
X308756Y383182D01*
X307756Y383381D01*
Y385756D01*
X298244D01*
Y376244D01*
X307756D01*
Y378620D01*
X308756Y378818D01*
X308846Y378602D01*
X309608Y377608D01*
X310601Y376846D01*
X311758Y376366D01*
X313000Y376203D01*
X314242Y376366D01*
X315399Y376846D01*
X316392Y377608D01*
X317154Y378602D01*
X317459Y379337D01*
X318541D01*
X318846Y378602D01*
X319608Y377608D01*
X320602Y376846D01*
X321759Y376366D01*
X323000Y376203D01*
X324241Y376366D01*
X325398Y376846D01*
X326392Y377608D01*
X327154Y378602D01*
X327459Y379337D01*
X328541D01*
X328846Y378602D01*
X329608Y377608D01*
X330602Y376846D01*
X331758Y376366D01*
X333000Y376203D01*
X334242Y376366D01*
X335399Y376846D01*
X336392Y377608D01*
X337154Y378602D01*
X337459Y379337D01*
X338541D01*
X338846Y378602D01*
X339608Y377608D01*
X340601Y376846D01*
X341758Y376366D01*
X343000Y376203D01*
X344241Y376366D01*
X345398Y376846D01*
X346392Y377608D01*
X347154Y378602D01*
X347459Y379337D01*
X348541D01*
X348846Y378602D01*
X349608Y377608D01*
X350602Y376846D01*
X351759Y376366D01*
X353000Y376203D01*
X354241Y376366D01*
X355399Y376846D01*
X356392Y377608D01*
X357154Y378602D01*
X357459Y379337D01*
X358541D01*
X358846Y378602D01*
X359608Y377608D01*
X360601Y376846D01*
X361758Y376366D01*
X363000Y376203D01*
X364242Y376366D01*
X365399Y376846D01*
X366392Y377608D01*
X367154Y378602D01*
X367459Y379337D01*
X368541D01*
X368846Y378602D01*
X369608Y377608D01*
X370602Y376846D01*
X371759Y376366D01*
X373000Y376203D01*
X374241Y376366D01*
X375398Y376846D01*
X376392Y377608D01*
X377154Y378602D01*
X377634Y379759D01*
X377797Y381000D01*
X377634Y382242D01*
X377154Y383399D01*
X376392Y384392D01*
X375398Y385154D01*
X374241Y385633D01*
X373000Y385797D01*
D02*
G37*
G36*
X337176Y371375D02*
X325108D01*
Y355364D01*
X337176D01*
Y371375D01*
D02*
G37*
G36*
X386360Y371370D02*
X374348D01*
Y355370D01*
X386360D01*
Y371370D01*
D02*
G37*
G36*
X411842Y376280D02*
X396812D01*
Y359280D01*
X411842D01*
Y376280D01*
D02*
G37*
G36*
X354764Y328797D02*
X353522Y328633D01*
X352365Y328154D01*
X351372Y327392D01*
X350609Y326398D01*
X350130Y325241D01*
X349967Y324000D01*
X350130Y322759D01*
X350279Y322399D01*
X343558Y315678D01*
X343116Y315017D01*
X342961Y314236D01*
Y279345D01*
X340155Y276539D01*
X293345D01*
X282442Y287442D01*
X282919Y288289D01*
X282958Y288340D01*
X284000Y288203D01*
X285242Y288367D01*
X286399Y288846D01*
X287392Y289608D01*
X288154Y290601D01*
X288633Y291758D01*
X288797Y293000D01*
X288633Y294241D01*
X288154Y295398D01*
X287392Y296392D01*
X286399Y297154D01*
X285242Y297634D01*
X284000Y297797D01*
X282758Y297634D01*
X281602Y297154D01*
X280608Y296392D01*
X279846Y295398D01*
X279541Y294663D01*
X278459D01*
X278154Y295398D01*
X277392Y296392D01*
X276398Y297154D01*
X275241Y297634D01*
X274000Y297797D01*
X272759Y297634D01*
X271602Y297154D01*
X270608Y296392D01*
X269846Y295398D01*
X269367Y294241D01*
X269203Y293000D01*
X269367Y291758D01*
X269846Y290601D01*
X270608Y289608D01*
X271602Y288846D01*
X272759Y288367D01*
X274000Y288203D01*
X275241Y288367D01*
X275601Y288515D01*
X277579Y286537D01*
X277573Y285518D01*
X276883Y284855D01*
X276388Y284888D01*
X275395Y285649D01*
X274240Y286128D01*
X273000Y286291D01*
X271760Y286128D01*
X270604Y285649D01*
X269612Y284888D01*
X268851Y283895D01*
X268372Y282740D01*
X268209Y281500D01*
X268372Y280260D01*
X268851Y279104D01*
X269612Y278112D01*
X270604Y277351D01*
X271760Y276872D01*
X273000Y276709D01*
X274240Y276872D01*
X275395Y277351D01*
X276388Y278112D01*
X277149Y279104D01*
X277392Y279691D01*
X277942Y280058D01*
X281000Y283116D01*
X291058Y273058D01*
X291720Y272616D01*
X292500Y272461D01*
X292500Y272461D01*
X341000D01*
X341780Y272616D01*
X342442Y273058D01*
X346442Y277058D01*
X346884Y277720D01*
X347039Y278500D01*
Y313391D01*
X353163Y319515D01*
X353522Y319367D01*
X354764Y319203D01*
X356005Y319367D01*
X357162Y319846D01*
X358156Y320608D01*
X358918Y321602D01*
X359397Y322759D01*
X359561Y324000D01*
X359397Y325241D01*
X358918Y326398D01*
X358156Y327392D01*
X357162Y328154D01*
X356005Y328633D01*
X354764Y328797D01*
D02*
G37*
G36*
X369028Y323500D02*
X364796D01*
X364894Y322759D01*
X365373Y321602D01*
X366136Y320608D01*
X367129Y319846D01*
X368286Y319367D01*
X369028Y319269D01*
Y323500D01*
D02*
G37*
G36*
X374259D02*
X370028D01*
Y319269D01*
X370769Y319367D01*
X371926Y319846D01*
X372920Y320608D01*
X373682Y321602D01*
X374161Y322759D01*
X374259Y323500D01*
D02*
G37*
G36*
X438500Y320539D02*
X437325Y320384D01*
X436231Y319931D01*
X435291Y319209D01*
X434569Y318269D01*
X434116Y317175D01*
X433961Y316000D01*
X434116Y314825D01*
X434569Y313731D01*
X435291Y312791D01*
X436231Y312069D01*
X437325Y311616D01*
X438500Y311461D01*
X439675Y311616D01*
X440769Y312069D01*
X441709Y312791D01*
X442431Y313731D01*
X442884Y314825D01*
X443039Y316000D01*
X442884Y317175D01*
X442431Y318269D01*
X441709Y319209D01*
X440769Y319931D01*
X439675Y320384D01*
X438500Y320539D01*
D02*
G37*
G36*
X253500Y322500D02*
X249269D01*
X249366Y321759D01*
X249846Y320602D01*
X250608Y319608D01*
X251602Y318846D01*
X252759Y318367D01*
X253500Y318269D01*
Y322500D01*
D02*
G37*
G36*
X340000Y328797D02*
X338758Y328633D01*
X337601Y328154D01*
X336608Y327392D01*
X335846Y326398D01*
X335367Y325241D01*
X335203Y324000D01*
X335367Y322759D01*
X335846Y321602D01*
X336608Y320608D01*
X337601Y319846D01*
X338758Y319367D01*
X340000Y319203D01*
X341242Y319367D01*
X342399Y319846D01*
X343392Y320608D01*
X344154Y321602D01*
X344634Y322759D01*
X344797Y324000D01*
X344634Y325241D01*
X344154Y326398D01*
X343392Y327392D01*
X342399Y328154D01*
X341242Y328633D01*
X340000Y328797D01*
D02*
G37*
G36*
X497500Y324500D02*
X493023D01*
X493129Y323695D01*
X493633Y322478D01*
X494434Y321434D01*
X495478Y320633D01*
X496695Y320129D01*
X497500Y320023D01*
Y324500D01*
D02*
G37*
G36*
X433067Y333797D02*
X431825Y333633D01*
X430668Y333154D01*
X429675Y332392D01*
X428913Y331399D01*
X428434Y330241D01*
X428270Y329000D01*
X428434Y327759D01*
X428913Y326602D01*
X429675Y325608D01*
X430668Y324846D01*
X431825Y324366D01*
X433067Y324203D01*
X434308Y324366D01*
X435465Y324846D01*
X436459Y325608D01*
X437221Y326602D01*
X437701Y327759D01*
X437864Y329000D01*
X437701Y330241D01*
X437221Y331399D01*
X436459Y332392D01*
X435465Y333154D01*
X434308Y333633D01*
X433067Y333797D01*
D02*
G37*
G36*
X447134Y328500D02*
X442903D01*
X443000Y327759D01*
X443479Y326602D01*
X444242Y325608D01*
X445235Y324846D01*
X446392Y324366D01*
X447134Y324269D01*
Y328500D01*
D02*
G37*
G36*
X452365D02*
X448134D01*
Y324269D01*
X448875Y324366D01*
X450032Y324846D01*
X451026Y325608D01*
X451788Y326602D01*
X452267Y327759D01*
X452365Y328500D01*
D02*
G37*
G36*
X502977Y324500D02*
X498500D01*
Y320023D01*
X499305Y320129D01*
X500522Y320633D01*
X501566Y321434D01*
X502367Y322478D01*
X502871Y323695D01*
X502977Y324500D01*
D02*
G37*
G36*
X253500Y327731D02*
X252759Y327634D01*
X251602Y327154D01*
X250608Y326392D01*
X249846Y325398D01*
X249366Y324241D01*
X249269Y323500D01*
X253500D01*
Y327731D01*
D02*
G37*
G36*
X418500Y333797D02*
X417259Y333633D01*
X416102Y333154D01*
X415108Y332392D01*
X414346Y331399D01*
X413867Y330241D01*
X413703Y329000D01*
X413867Y327759D01*
X414346Y326602D01*
X415108Y325608D01*
X416102Y324846D01*
X417259Y324366D01*
X418500Y324203D01*
X419741Y324366D01*
X420898Y324846D01*
X421892Y325608D01*
X422654Y326602D01*
X423134Y327759D01*
X423297Y329000D01*
X423134Y330241D01*
X422654Y331399D01*
X421892Y332392D01*
X420898Y333154D01*
X419741Y333633D01*
X418500Y333797D01*
D02*
G37*
%LPD*%
D10*
X281000Y286000D02*
X292500Y274500D01*
X274000Y293000D02*
X281000Y286000D01*
X276500Y281500D02*
X281000Y286000D01*
X273000Y281500D02*
X276500D01*
X345000Y314236D02*
X354764Y324000D01*
X345000Y278500D02*
Y314236D01*
X341000Y274500D02*
X345000Y278500D01*
X292500Y274500D02*
X341000D01*
X308500Y291000D02*
Y318500D01*
D11*
X466500Y268500D02*
D03*
X262000Y202500D02*
D03*
X236000Y215500D02*
D03*
X273000Y281500D02*
D03*
X332500Y295000D02*
D03*
D12*
X258315Y264500D02*
D03*
X268157D02*
D03*
X278000D02*
D03*
X422000Y298000D02*
D03*
X472000D02*
D03*
X356000Y298500D02*
D03*
X406000D02*
D03*
X418500Y329000D02*
D03*
X447634D02*
D03*
X433067D02*
D03*
X340000Y324000D02*
D03*
X369528D02*
D03*
X354764D02*
D03*
X274000Y293000D02*
D03*
X284000D02*
D03*
X254000Y323000D02*
D03*
X264000D02*
D03*
X274000D02*
D03*
X483354Y250843D02*
D03*
Y233126D02*
D03*
X254000Y223000D02*
D03*
Y213000D02*
D03*
X274000Y381000D02*
D03*
X264000D02*
D03*
X254000D02*
D03*
X244000D02*
D03*
X234000D02*
D03*
X329500Y191000D02*
D03*
X339500D02*
D03*
X349500D02*
D03*
X359500D02*
D03*
X369500D02*
D03*
X379500D02*
D03*
X389500D02*
D03*
X399500D02*
D03*
X409500D02*
D03*
X263500D02*
D03*
X273500D02*
D03*
X283500D02*
D03*
X293500D02*
D03*
X303500D02*
D03*
X243500D02*
D03*
X253500D02*
D03*
X333000Y381000D02*
D03*
X343000D02*
D03*
X353000D02*
D03*
X363000D02*
D03*
X373000D02*
D03*
X313000D02*
D03*
X323000D02*
D03*
D13*
X498000Y325000D02*
D03*
D14*
X438500Y316000D02*
D03*
D15*
X404327Y367780D02*
D03*
D16*
X461807D02*
D03*
D17*
X380354Y363370D02*
D03*
D18*
X331142D02*
D03*
D19*
X254000Y293000D02*
D03*
X264000D02*
D03*
D20*
X284000Y323000D02*
D03*
D21*
Y381000D02*
D03*
X319500Y191000D02*
D03*
X233500D02*
D03*
X303000Y381000D02*
D03*
D22*
X308500Y318500D02*
D03*
Y291000D02*
D03*
M02*
