M48
;Layer_Color=9474304
;FILE_FORMAT=2:5
INCH,LZ
;TYPE=PLATED
T1F00S00C0.03353
T2F00S00C0.03500
;TYPE=NON_PLATED
T3F00S00C0.03346
T4F00S00C0.03543
T5F00S00C0.03600
T6F00S00C0.03650
T7F00S00C0.03937
%
T01
X03085Y0291
X03085Y03185
T02
X03325Y0295
X04665Y02685
X0273Y02815
X0262Y02025
X0236Y02155
X04385Y0316
X0498Y0325
T03
X0472Y0298
X0422Y0298
X0406Y02985
X0356Y02985
T04
X0254Y0293
X0264Y0293
X0274Y0293
X0284Y0293
X0284Y0323
X0274Y0323
X0264Y0323
X0254Y0323
T05
X0483354Y0233126
X0483354Y0250843
X04095Y0191
X03995Y0191
X03895Y0191
X03795Y0191
X03695Y0191
X03595Y0191
X03495Y0191
X03395Y0191
X03295Y0191
X03195Y0191
X03035Y0191
X02935Y0191
X02835Y0191
X02735Y0191
X02635Y0191
X02535Y0191
X02435Y0191
X02335Y0191
X0234Y0381
X0244Y0381
X0254Y0381
X0264Y0381
X0274Y0381
X0284Y0381
X0303Y0381
X0313Y0381
X0323Y0381
X0333Y0381
X0343Y0381
X0353Y0381
X0363Y0381
X0373Y0381
T06
X0254Y0213
X0254Y0223
X0258315Y02645
X0268157Y02645
X0278Y02645
T07
X034Y0324
X0354764Y0324
X0369528Y0324
X04185Y0329
X0433067Y0329
X0447634Y0329
M30
