G04 Layer_Physical_Order=2*
G04 Layer_Color=16711680*
%FSLAX25Y25*%
%MOIN*%
G70*
G01*
G75*
%ADD17C,0.01000*%
%ADD18C,0.06000*%
%ADD19R,0.15748X0.13780*%
%ADD20C,0.06000*%
%ADD21C,0.05906*%
%ADD22R,0.05906X0.05906*%
%ADD23C,0.06299*%
%ADD24R,0.06000X0.06000*%
%ADD25C,0.05000*%
G36*
X320500Y247854D02*
X320146Y247502D01*
X103500Y248500D01*
X102500Y249500D01*
Y500000D01*
X320500D01*
Y247854D01*
D02*
G37*
%LPC*%
G36*
X307500Y359034D02*
X306456Y358897D01*
X305483Y358494D01*
X304647Y357853D01*
X304006Y357017D01*
X303603Y356044D01*
X303466Y355000D01*
X303603Y353956D01*
X304006Y352983D01*
X304647Y352147D01*
X305483Y351506D01*
X306456Y351103D01*
X307500Y350965D01*
X308544Y351103D01*
X309517Y351506D01*
X310353Y352147D01*
X310994Y352983D01*
X311397Y353956D01*
X311535Y355000D01*
X311397Y356044D01*
X310994Y357017D01*
X310353Y357853D01*
X309517Y358494D01*
X308544Y358897D01*
X307500Y359034D01*
D02*
G37*
G36*
Y369035D02*
X306456Y368897D01*
X305483Y368494D01*
X304647Y367853D01*
X304006Y367017D01*
X303603Y366044D01*
X303466Y365000D01*
X303603Y363956D01*
X303805Y363468D01*
X296419Y356081D01*
X296087Y355585D01*
X295971Y355000D01*
Y333633D01*
X223366Y261029D01*
X127634D01*
X109529Y279134D01*
Y325231D01*
X113001Y328701D01*
X113528Y328522D01*
X113603Y327956D01*
X114006Y326983D01*
X114647Y326147D01*
X115483Y325506D01*
X116456Y325103D01*
X117500Y324966D01*
X118544Y325103D01*
X119517Y325506D01*
X120353Y326147D01*
X120994Y326983D01*
X121397Y327956D01*
X121535Y329000D01*
X121397Y330044D01*
X120994Y331017D01*
X120353Y331853D01*
X119520Y332492D01*
X119518Y332505D01*
X119573Y333012D01*
X119949Y333087D01*
X120445Y333419D01*
X123081Y336055D01*
X123413Y336551D01*
X123529Y337136D01*
Y340367D01*
X143468Y360305D01*
X143956Y360103D01*
X145000Y359965D01*
X146044Y360103D01*
X147017Y360506D01*
X147853Y361147D01*
X148494Y361983D01*
X148897Y362956D01*
X149035Y364000D01*
X148897Y365044D01*
X148494Y366017D01*
X147853Y366853D01*
X147017Y367494D01*
X146044Y367897D01*
X145000Y368035D01*
X143956Y367897D01*
X142983Y367494D01*
X142147Y366853D01*
X141506Y366017D01*
X141103Y365044D01*
X140965Y364000D01*
X141103Y362956D01*
X141305Y362468D01*
X120919Y342081D01*
X120867Y342004D01*
X120680Y341949D01*
X120228Y341948D01*
X119517Y342494D01*
X118544Y342897D01*
X117500Y343035D01*
X116456Y342897D01*
X115483Y342494D01*
X114647Y341853D01*
X114006Y341017D01*
X113603Y340044D01*
X113465Y339000D01*
X113603Y337956D01*
X114006Y336983D01*
X114647Y336147D01*
X115180Y335738D01*
X115213Y335239D01*
X106919Y326945D01*
X106587Y326449D01*
X106471Y325864D01*
Y278500D01*
X106587Y277915D01*
X106919Y277419D01*
X125919Y258419D01*
X126415Y258087D01*
X127000Y257971D01*
X224000D01*
X224585Y258087D01*
X225081Y258419D01*
X298581Y331919D01*
X298913Y332415D01*
X299029Y333000D01*
Y354366D01*
X305968Y361305D01*
X306456Y361103D01*
X307500Y360965D01*
X308544Y361103D01*
X309517Y361506D01*
X310353Y362147D01*
X310994Y362983D01*
X311397Y363956D01*
X311535Y365000D01*
X311397Y366044D01*
X310994Y367017D01*
X310353Y367853D01*
X309517Y368494D01*
X308544Y368897D01*
X307500Y369035D01*
D02*
G37*
G36*
X271091Y381583D02*
X253343D01*
Y365803D01*
X271091D01*
Y381583D01*
D02*
G37*
G36*
X307500Y349035D02*
X306456Y348897D01*
X305483Y348494D01*
X304647Y347853D01*
X304006Y347017D01*
X303603Y346044D01*
X303466Y345000D01*
X303603Y343956D01*
X304006Y342983D01*
X304647Y342147D01*
X305483Y341506D01*
X306456Y341103D01*
X307500Y340966D01*
X308544Y341103D01*
X309517Y341506D01*
X310353Y342147D01*
X310994Y342983D01*
X311397Y343956D01*
X311535Y345000D01*
X311397Y346044D01*
X310994Y347017D01*
X310353Y347853D01*
X309517Y348494D01*
X308544Y348897D01*
X307500Y349035D01*
D02*
G37*
G36*
X248469Y336972D02*
X245000D01*
Y333504D01*
X245544Y333575D01*
X246517Y333978D01*
X247353Y334620D01*
X247994Y335455D01*
X248397Y336428D01*
X248469Y336972D01*
D02*
G37*
G36*
X209500Y373969D02*
Y370000D01*
Y366031D01*
X210044Y366103D01*
X211017Y366506D01*
X211853Y367147D01*
X211974Y367304D01*
X212472Y367337D01*
X240805Y339004D01*
X240603Y338517D01*
X240531Y337972D01*
X244000D01*
Y341441D01*
X243456Y341370D01*
X242968Y341167D01*
X213054Y371081D01*
X212816Y371241D01*
X212494Y372017D01*
X211853Y372853D01*
X211017Y373494D01*
X210044Y373897D01*
X209500Y373969D01*
D02*
G37*
G36*
X245000Y341441D02*
Y337972D01*
X248469D01*
X248397Y338517D01*
X247994Y339490D01*
X247353Y340325D01*
X246517Y340966D01*
X245544Y341370D01*
X245000Y341441D01*
D02*
G37*
G36*
X208500Y369500D02*
X205031D01*
X205103Y368956D01*
X205506Y367983D01*
X206147Y367147D01*
X206983Y366506D01*
X207956Y366103D01*
X208500Y366031D01*
Y369500D01*
D02*
G37*
G36*
X118500Y399035D02*
X117456Y398897D01*
X116483Y398494D01*
X115647Y397853D01*
X115006Y397017D01*
X114603Y396044D01*
X114465Y395000D01*
X114603Y393956D01*
X115006Y392983D01*
X115647Y392147D01*
X116483Y391506D01*
X117456Y391103D01*
X118500Y390966D01*
X119544Y391103D01*
X120517Y391506D01*
X121353Y392147D01*
X121994Y392983D01*
X122397Y393956D01*
X122535Y395000D01*
X122397Y396044D01*
X121994Y397017D01*
X121353Y397853D01*
X120517Y398494D01*
X119544Y398897D01*
X118500Y399035D01*
D02*
G37*
G36*
X311500Y399000D02*
X303500D01*
Y391000D01*
X311500D01*
Y399000D01*
D02*
G37*
G36*
X225500Y401034D02*
X224456Y400897D01*
X223483Y400494D01*
X222647Y399853D01*
X222006Y399017D01*
X221603Y398044D01*
X221465Y397000D01*
X221603Y395956D01*
X221659Y395821D01*
X172866Y347029D01*
X151000D01*
X150415Y346913D01*
X149919Y346581D01*
X149587Y346085D01*
X149471Y345500D01*
Y293358D01*
X148907Y293125D01*
X148040Y292460D01*
X147375Y291593D01*
X146957Y290583D01*
X146815Y289500D01*
X146957Y288417D01*
X147375Y287407D01*
X148040Y286541D01*
X148907Y285875D01*
X149917Y285457D01*
X151000Y285315D01*
X152083Y285457D01*
X153093Y285875D01*
X153960Y286541D01*
X154625Y287407D01*
X155043Y288417D01*
X155185Y289500D01*
X155043Y290583D01*
X154625Y291593D01*
X153960Y292460D01*
X153093Y293125D01*
X152529Y293358D01*
Y343971D01*
X173500D01*
X174085Y344087D01*
X174581Y344419D01*
X181037Y350874D01*
X181486Y350653D01*
X181465Y350500D01*
X181603Y349456D01*
X182006Y348483D01*
X182647Y347647D01*
X183483Y347006D01*
X184456Y346603D01*
X185500Y346465D01*
X186544Y346603D01*
X187517Y347006D01*
X188353Y347647D01*
X188994Y348483D01*
X189196Y348971D01*
X204000D01*
X204585Y349087D01*
X205081Y349419D01*
X208968Y353305D01*
X209456Y353103D01*
X210500Y352965D01*
X211544Y353103D01*
X212517Y353506D01*
X213353Y354147D01*
X213994Y354983D01*
X214397Y355956D01*
X214534Y357000D01*
X214397Y358044D01*
X213994Y359017D01*
X213353Y359853D01*
X212517Y360494D01*
X211544Y360897D01*
X210500Y361034D01*
X209456Y360897D01*
X208483Y360494D01*
X207647Y359853D01*
X207006Y359017D01*
X206603Y358044D01*
X206466Y357000D01*
X206603Y355956D01*
X206805Y355468D01*
X203366Y352029D01*
X189196D01*
X188994Y352517D01*
X188353Y353353D01*
X187517Y353994D01*
X186544Y354397D01*
X185500Y354535D01*
X185347Y354514D01*
X185126Y354963D01*
X223614Y393451D01*
X224456Y393103D01*
X225500Y392966D01*
X226544Y393103D01*
X227517Y393506D01*
X228353Y394147D01*
X228994Y394983D01*
X229397Y395956D01*
X229535Y397000D01*
X229397Y398044D01*
X228994Y399017D01*
X228353Y399853D01*
X227517Y400494D01*
X226544Y400897D01*
X225500Y401034D01*
D02*
G37*
G36*
X307500Y389035D02*
X306456Y388897D01*
X305483Y388494D01*
X304647Y387853D01*
X304006Y387017D01*
X303603Y386044D01*
X303466Y385000D01*
X303603Y383956D01*
X304006Y382983D01*
X304647Y382147D01*
X305483Y381506D01*
X306456Y381103D01*
X307500Y380965D01*
X308544Y381103D01*
X309517Y381506D01*
X310353Y382147D01*
X310994Y382983D01*
X311397Y383956D01*
X311535Y385000D01*
X311397Y386044D01*
X310994Y387017D01*
X310353Y387853D01*
X309517Y388494D01*
X308544Y388897D01*
X307500Y389035D01*
D02*
G37*
G36*
X179500Y460534D02*
X178456Y460397D01*
X177483Y459994D01*
X176647Y459353D01*
X176006Y458517D01*
X175804Y458029D01*
X140000D01*
X139415Y457913D01*
X138919Y457581D01*
X120032Y438695D01*
X119544Y438897D01*
X118500Y439035D01*
X117456Y438897D01*
X116483Y438494D01*
X115647Y437853D01*
X115006Y437017D01*
X114603Y436044D01*
X114465Y435000D01*
X114603Y433956D01*
X115006Y432983D01*
X115647Y432147D01*
X116452Y431529D01*
X116455Y431476D01*
X116200Y431029D01*
X109000D01*
X108415Y430913D01*
X107919Y430581D01*
X107419Y430081D01*
X107087Y429585D01*
X106971Y429000D01*
Y358000D01*
X107087Y357415D01*
X107419Y356919D01*
X113805Y350532D01*
X113603Y350044D01*
X113465Y349000D01*
X113603Y347956D01*
X114006Y346983D01*
X114647Y346147D01*
X115483Y345506D01*
X116456Y345103D01*
X117500Y344966D01*
X118544Y345103D01*
X119517Y345506D01*
X120353Y346147D01*
X120994Y346983D01*
X121397Y347956D01*
X121535Y349000D01*
X121397Y350044D01*
X120994Y351017D01*
X120353Y351853D01*
X119517Y352494D01*
X118544Y352897D01*
X117500Y353034D01*
X116456Y352897D01*
X115968Y352695D01*
X110029Y358633D01*
Y427971D01*
X115107D01*
X115354Y427471D01*
X115006Y427017D01*
X114603Y426044D01*
X114465Y425000D01*
X114603Y423956D01*
X115006Y422983D01*
X115647Y422147D01*
X116483Y421506D01*
X117456Y421103D01*
X118500Y420965D01*
X119544Y421103D01*
X120517Y421506D01*
X121353Y422147D01*
X121994Y422983D01*
X122397Y423956D01*
X122535Y425000D01*
X122397Y426044D01*
X121994Y427017D01*
X121646Y427471D01*
X121893Y427971D01*
X125500D01*
X126085Y428087D01*
X126581Y428419D01*
X135851Y437688D01*
X136086Y437590D01*
X137000Y437470D01*
X137914Y437590D01*
X138765Y437943D01*
X139496Y438504D01*
X140057Y439235D01*
X140410Y440086D01*
X140530Y441000D01*
X140410Y441914D01*
X140057Y442765D01*
X139496Y443496D01*
X138765Y444057D01*
X137914Y444410D01*
X137000Y444530D01*
X136086Y444410D01*
X135235Y444057D01*
X134504Y443496D01*
X133943Y442765D01*
X133590Y441914D01*
X133470Y441000D01*
X133590Y440086D01*
X133688Y439851D01*
X124866Y431029D01*
X120800D01*
X120545Y431476D01*
X120548Y431529D01*
X121353Y432147D01*
X121994Y432983D01*
X122397Y433956D01*
X122535Y435000D01*
X122397Y436044D01*
X122195Y436532D01*
X140633Y454971D01*
X175804D01*
X176006Y454483D01*
X176647Y453647D01*
X177483Y453006D01*
X178456Y452603D01*
X179500Y452465D01*
X180544Y452603D01*
X181517Y453006D01*
X182353Y453647D01*
X182994Y454483D01*
X183196Y454971D01*
X230867D01*
X237471Y448366D01*
Y443645D01*
X237007Y443453D01*
X236181Y442819D01*
X235547Y441993D01*
X235149Y441032D01*
X235013Y440000D01*
X235149Y438968D01*
X235547Y438007D01*
X236181Y437181D01*
X237007Y436547D01*
X237968Y436149D01*
X239000Y436013D01*
X240032Y436149D01*
X240993Y436547D01*
X241819Y437181D01*
X242453Y438007D01*
X242645Y438471D01*
X244367D01*
X271837Y411000D01*
X243419Y382581D01*
X243087Y382085D01*
X242971Y381500D01*
Y370696D01*
X242483Y370494D01*
X242029Y370146D01*
X241529Y370393D01*
Y388866D01*
X250581Y397919D01*
X250913Y398415D01*
X251029Y399000D01*
Y430000D01*
X250913Y430585D01*
X250581Y431081D01*
X250085Y431413D01*
X249500Y431529D01*
X242645D01*
X242453Y431993D01*
X241819Y432819D01*
X240993Y433453D01*
X240032Y433851D01*
X239000Y433987D01*
X237968Y433851D01*
X237007Y433453D01*
X236181Y432819D01*
X235547Y431993D01*
X235149Y431032D01*
X235013Y430000D01*
X235149Y428968D01*
X235547Y428007D01*
X236181Y427181D01*
X237007Y426547D01*
X237968Y426149D01*
X239000Y426013D01*
X240032Y426149D01*
X240993Y426547D01*
X241819Y427181D01*
X242453Y428007D01*
X242645Y428471D01*
X247971D01*
Y399634D01*
X238919Y390581D01*
X238587Y390085D01*
X238471Y389500D01*
Y365136D01*
X238587Y364551D01*
X238919Y364055D01*
X242971Y360003D01*
Y355932D01*
X242483Y355730D01*
X241647Y355089D01*
X241006Y354254D01*
X240603Y353280D01*
X240465Y352236D01*
X240603Y351192D01*
X241006Y350219D01*
X241647Y349383D01*
X242483Y348742D01*
X243456Y348339D01*
X244500Y348202D01*
X245544Y348339D01*
X246517Y348742D01*
X247353Y349383D01*
X247994Y350219D01*
X248397Y351192D01*
X248534Y352236D01*
X248397Y353280D01*
X247994Y354254D01*
X247353Y355089D01*
X246517Y355730D01*
X246029Y355932D01*
Y360636D01*
X245913Y361221D01*
X245581Y361718D01*
X244798Y362501D01*
X244978Y363028D01*
X245544Y363103D01*
X246517Y363506D01*
X247353Y364147D01*
X247994Y364983D01*
X248397Y365956D01*
X248534Y367000D01*
X248397Y368044D01*
X247994Y369017D01*
X247353Y369853D01*
X246517Y370494D01*
X246029Y370696D01*
Y380867D01*
X275081Y409919D01*
X275413Y410415D01*
X275529Y411000D01*
X275413Y411585D01*
X275081Y412081D01*
X246081Y441081D01*
X245585Y441413D01*
X245000Y441529D01*
X242645D01*
X242453Y441993D01*
X241819Y442819D01*
X240993Y443453D01*
X240529Y443645D01*
Y449000D01*
X240413Y449585D01*
X240081Y450081D01*
X232581Y457581D01*
X232085Y457913D01*
X231500Y458029D01*
X183196D01*
X182994Y458517D01*
X182353Y459353D01*
X181517Y459994D01*
X180544Y460397D01*
X179500Y460534D01*
D02*
G37*
G36*
X208500Y373969D02*
X207956Y373897D01*
X206983Y373494D01*
X206147Y372853D01*
X205506Y372017D01*
X205103Y371044D01*
X205031Y370500D01*
X208500D01*
Y373969D01*
D02*
G37*
G36*
X307500Y379034D02*
X306456Y378897D01*
X305483Y378494D01*
X304647Y377853D01*
X304006Y377017D01*
X303603Y376044D01*
X303466Y375000D01*
X303603Y373956D01*
X304006Y372983D01*
X304647Y372147D01*
X305483Y371506D01*
X306456Y371103D01*
X307500Y370966D01*
X308544Y371103D01*
X309517Y371506D01*
X310353Y372147D01*
X310994Y372983D01*
X311397Y373956D01*
X311535Y375000D01*
X311397Y376044D01*
X310994Y377017D01*
X310353Y377853D01*
X309517Y378494D01*
X308544Y378897D01*
X307500Y379034D01*
D02*
G37*
G36*
X244000Y336972D02*
X240531D01*
X240603Y336428D01*
X241006Y335455D01*
X241647Y334620D01*
X242483Y333978D01*
X243456Y333575D01*
X244000Y333504D01*
Y336972D01*
D02*
G37*
G36*
X193000Y281421D02*
Y278000D01*
X196421D01*
X196351Y278532D01*
X195953Y279493D01*
X195319Y280319D01*
X194493Y280953D01*
X193532Y281351D01*
X193000Y281421D01*
D02*
G37*
G36*
X117500Y293035D02*
X116456Y292897D01*
X115483Y292494D01*
X114647Y291853D01*
X114006Y291017D01*
X113603Y290044D01*
X113465Y289000D01*
X113603Y287956D01*
X114006Y286983D01*
X114647Y286147D01*
X115483Y285506D01*
X116456Y285103D01*
X117500Y284965D01*
X118544Y285103D01*
X119517Y285506D01*
X120353Y286147D01*
X120994Y286983D01*
X121397Y287956D01*
X121535Y289000D01*
X121397Y290044D01*
X120994Y291017D01*
X120353Y291853D01*
X119517Y292494D01*
X118544Y292897D01*
X117500Y293035D01*
D02*
G37*
G36*
X142000Y309530D02*
X141086Y309410D01*
X140235Y309057D01*
X139504Y308496D01*
X138943Y307765D01*
X138590Y306914D01*
X138470Y306000D01*
X138590Y305086D01*
X138943Y304235D01*
X139504Y303504D01*
X140235Y302943D01*
X140471Y302845D01*
Y293616D01*
X139917Y293543D01*
X138907Y293125D01*
X138040Y292460D01*
X137375Y291593D01*
X136957Y290583D01*
X136815Y289500D01*
X136957Y288417D01*
X137375Y287407D01*
X138040Y286541D01*
X138907Y285875D01*
X139917Y285457D01*
X141000Y285315D01*
X142083Y285457D01*
X143093Y285875D01*
X143959Y286541D01*
X144625Y287407D01*
X145043Y288417D01*
X145185Y289500D01*
X145043Y290583D01*
X144625Y291593D01*
X143959Y292460D01*
X143529Y292790D01*
Y302845D01*
X143765Y302943D01*
X144496Y303504D01*
X145057Y304235D01*
X145410Y305086D01*
X145530Y306000D01*
X145410Y306914D01*
X145057Y307765D01*
X144496Y308496D01*
X143765Y309057D01*
X142914Y309410D01*
X142000Y309530D01*
D02*
G37*
G36*
X192000Y281421D02*
X191468Y281351D01*
X190507Y280953D01*
X189681Y280319D01*
X189047Y279493D01*
X188649Y278532D01*
X188579Y278000D01*
X192000D01*
Y281421D01*
D02*
G37*
G36*
X206453Y281453D02*
X198547D01*
Y273547D01*
X206453D01*
Y281453D01*
D02*
G37*
G36*
X192000Y277000D02*
X188579D01*
X188649Y276468D01*
X189047Y275507D01*
X189681Y274681D01*
X190507Y274047D01*
X191468Y273649D01*
X192000Y273579D01*
Y277000D01*
D02*
G37*
G36*
X196421D02*
X193000D01*
Y273579D01*
X193532Y273649D01*
X194493Y274047D01*
X195319Y274681D01*
X195953Y275507D01*
X196351Y276468D01*
X196421Y277000D01*
D02*
G37*
G36*
X117500Y303034D02*
X116456Y302897D01*
X115483Y302494D01*
X114647Y301853D01*
X114006Y301017D01*
X113603Y300044D01*
X113465Y299000D01*
X113603Y297956D01*
X114006Y296983D01*
X114647Y296147D01*
X115483Y295506D01*
X116456Y295103D01*
X117500Y294966D01*
X118544Y295103D01*
X119517Y295506D01*
X120353Y296147D01*
X120994Y296983D01*
X121397Y297956D01*
X121535Y299000D01*
X121397Y300044D01*
X120994Y301017D01*
X120353Y301853D01*
X119517Y302494D01*
X118544Y302897D01*
X117500Y303034D01*
D02*
G37*
G36*
X307500Y329034D02*
X306456Y328897D01*
X305483Y328494D01*
X304647Y327853D01*
X304006Y327017D01*
X303603Y326044D01*
X303466Y325000D01*
X303603Y323956D01*
X304006Y322983D01*
X304647Y322147D01*
X305483Y321506D01*
X306456Y321103D01*
X307500Y320966D01*
X308544Y321103D01*
X309517Y321506D01*
X310353Y322147D01*
X310994Y322983D01*
X311397Y323956D01*
X311535Y325000D01*
X311397Y326044D01*
X310994Y327017D01*
X310353Y327853D01*
X309517Y328494D01*
X308544Y328897D01*
X307500Y329034D01*
D02*
G37*
G36*
X271091Y338276D02*
X253343D01*
Y322496D01*
X271091D01*
Y338276D01*
D02*
G37*
G36*
X307500Y339035D02*
X306456Y338897D01*
X305483Y338494D01*
X304647Y337853D01*
X304006Y337017D01*
X303603Y336044D01*
X303466Y335000D01*
X303603Y333956D01*
X304006Y332983D01*
X304647Y332147D01*
X305483Y331506D01*
X306456Y331103D01*
X307500Y330965D01*
X308544Y331103D01*
X309517Y331506D01*
X310353Y332147D01*
X310994Y332983D01*
X311397Y333956D01*
X311535Y335000D01*
X311397Y336044D01*
X310994Y337017D01*
X310353Y337853D01*
X309517Y338494D01*
X308544Y338897D01*
X307500Y339035D01*
D02*
G37*
G36*
X117000Y322969D02*
X116456Y322897D01*
X115483Y322494D01*
X114647Y321853D01*
X114006Y321017D01*
X113603Y320044D01*
X113531Y319500D01*
X117000D01*
Y322969D01*
D02*
G37*
G36*
X117500Y313035D02*
X116456Y312897D01*
X115483Y312494D01*
X114647Y311853D01*
X114006Y311017D01*
X113603Y310044D01*
X113465Y309000D01*
X113603Y307956D01*
X114006Y306983D01*
X114647Y306147D01*
X115483Y305506D01*
X116456Y305103D01*
X117500Y304965D01*
X118544Y305103D01*
X119517Y305506D01*
X120353Y306147D01*
X120994Y306983D01*
X121397Y307956D01*
X121535Y309000D01*
X121397Y310044D01*
X120994Y311017D01*
X120353Y311853D01*
X119517Y312494D01*
X118544Y312897D01*
X117500Y313035D01*
D02*
G37*
G36*
X117000Y318500D02*
X113531D01*
X113603Y317956D01*
X114006Y316983D01*
X114647Y316147D01*
X115483Y315506D01*
X116456Y315103D01*
X117000Y315031D01*
Y318500D01*
D02*
G37*
G36*
X118000Y322969D02*
Y319000D01*
Y315031D01*
X118544Y315103D01*
X119517Y315506D01*
X120353Y316147D01*
X120994Y316983D01*
X121196Y317471D01*
X142500D01*
X143085Y317587D01*
X143581Y317919D01*
X143913Y318415D01*
X144029Y319000D01*
X143913Y319585D01*
X143581Y320081D01*
X143085Y320413D01*
X142500Y320529D01*
X121196D01*
X120994Y321017D01*
X120353Y321853D01*
X119517Y322494D01*
X118544Y322897D01*
X118000Y322969D01*
D02*
G37*
G36*
X307500Y469034D02*
X306456Y468897D01*
X305483Y468494D01*
X304647Y467853D01*
X304006Y467017D01*
X303603Y466044D01*
X303466Y465000D01*
X303603Y463956D01*
X304006Y462983D01*
X304647Y462147D01*
X305483Y461506D01*
X306456Y461103D01*
X307500Y460965D01*
X308544Y461103D01*
X309517Y461506D01*
X310353Y462147D01*
X310994Y462983D01*
X311397Y463956D01*
X311535Y465000D01*
X311397Y466044D01*
X310994Y467017D01*
X310353Y467853D01*
X309517Y468494D01*
X308544Y468897D01*
X307500Y469034D01*
D02*
G37*
G36*
X118000Y458969D02*
X117456Y458897D01*
X116483Y458494D01*
X115647Y457853D01*
X115006Y457017D01*
X114603Y456044D01*
X114531Y455500D01*
X118000D01*
Y458969D01*
D02*
G37*
G36*
X189342Y471534D02*
X188298Y471397D01*
X187325Y470994D01*
X186490Y470353D01*
X185848Y469517D01*
X185445Y468544D01*
X185308Y467500D01*
X185445Y466456D01*
X185848Y465483D01*
X186490Y464647D01*
X187325Y464006D01*
X188298Y463603D01*
X189342Y463465D01*
X190387Y463603D01*
X191360Y464006D01*
X192195Y464647D01*
X192836Y465483D01*
X193240Y466456D01*
X193377Y467500D01*
X193240Y468544D01*
X192836Y469517D01*
X192195Y470353D01*
X191360Y470994D01*
X190387Y471397D01*
X189342Y471534D01*
D02*
G37*
G36*
X179500D02*
X178456Y471397D01*
X177483Y470994D01*
X176647Y470353D01*
X176006Y469517D01*
X175603Y468544D01*
X175466Y467500D01*
X175603Y466456D01*
X176006Y465483D01*
X176647Y464647D01*
X177483Y464006D01*
X178456Y463603D01*
X179500Y463465D01*
X180544Y463603D01*
X181517Y464006D01*
X182353Y464647D01*
X182994Y465483D01*
X183397Y466456D01*
X183535Y467500D01*
X183397Y468544D01*
X182994Y469517D01*
X182353Y470353D01*
X181517Y470994D01*
X180544Y471397D01*
X179500Y471534D01*
D02*
G37*
G36*
X122469Y444500D02*
X119000D01*
Y441031D01*
X119544Y441103D01*
X120517Y441506D01*
X121353Y442147D01*
X121994Y442983D01*
X122397Y443956D01*
X122469Y444500D01*
D02*
G37*
G36*
X118000D02*
X114531D01*
X114603Y443956D01*
X115006Y442983D01*
X115647Y442147D01*
X116483Y441506D01*
X117456Y441103D01*
X118000Y441031D01*
Y444500D01*
D02*
G37*
G36*
X307500Y459034D02*
X306456Y458897D01*
X305483Y458494D01*
X304647Y457853D01*
X304006Y457017D01*
X303603Y456044D01*
X303466Y455000D01*
X303603Y453956D01*
X304006Y452983D01*
X304647Y452147D01*
X305483Y451506D01*
X306456Y451103D01*
X307500Y450965D01*
X308544Y451103D01*
X309517Y451506D01*
X310353Y452147D01*
X310994Y452983D01*
X311397Y453956D01*
X311535Y455000D01*
X311397Y456044D01*
X310994Y457017D01*
X310353Y457853D01*
X309517Y458494D01*
X308544Y458897D01*
X307500Y459034D01*
D02*
G37*
G36*
X122469Y454500D02*
X114531D01*
X114603Y453956D01*
X115006Y452983D01*
X115647Y452147D01*
X116483Y451506D01*
X116971Y451304D01*
Y448696D01*
X116483Y448494D01*
X115647Y447853D01*
X115006Y447017D01*
X114603Y446044D01*
X114531Y445500D01*
X122469D01*
X122397Y446044D01*
X121994Y447017D01*
X121353Y447853D01*
X120517Y448494D01*
X120029Y448696D01*
Y451304D01*
X120517Y451506D01*
X121353Y452147D01*
X121994Y452983D01*
X122397Y453956D01*
X122469Y454500D01*
D02*
G37*
G36*
X199685Y471469D02*
Y468000D01*
X203154D01*
X203082Y468544D01*
X202679Y469517D01*
X202038Y470353D01*
X201202Y470994D01*
X200229Y471397D01*
X199685Y471469D01*
D02*
G37*
G36*
X181685Y486529D02*
X148500D01*
X147915Y486413D01*
X147419Y486081D01*
X122962Y461625D01*
X122500Y461816D01*
Y469000D01*
X114500D01*
Y461000D01*
X121684D01*
X121875Y460538D01*
X120032Y458695D01*
X119544Y458897D01*
X119000Y458969D01*
Y455500D01*
X122469D01*
X122397Y456044D01*
X122195Y456532D01*
X149134Y483471D01*
X181052D01*
X195490Y469032D01*
X195288Y468544D01*
X195216Y468000D01*
X198685D01*
Y471469D01*
X198141Y471397D01*
X197653Y471195D01*
X182766Y486081D01*
X182270Y486413D01*
X181685Y486529D01*
D02*
G37*
G36*
X224500Y471469D02*
Y468000D01*
X227969D01*
X227897Y468544D01*
X227494Y469517D01*
X226853Y470353D01*
X226017Y470994D01*
X225044Y471397D01*
X224500Y471469D01*
D02*
G37*
G36*
X223500D02*
X222956Y471397D01*
X221983Y470994D01*
X221147Y470353D01*
X220506Y469517D01*
X220103Y468544D01*
X220031Y468000D01*
X223500D01*
Y471469D01*
D02*
G37*
G36*
X203154Y467000D02*
X199685D01*
Y463531D01*
X200229Y463603D01*
X201202Y464006D01*
X202038Y464647D01*
X202679Y465483D01*
X203082Y466456D01*
X203154Y467000D01*
D02*
G37*
G36*
X198685D02*
X195216D01*
X195288Y466456D01*
X195691Y465483D01*
X196332Y464647D01*
X197168Y464006D01*
X198141Y463603D01*
X198685Y463531D01*
Y467000D01*
D02*
G37*
G36*
X227969D02*
X224500D01*
Y463531D01*
X225044Y463603D01*
X226017Y464006D01*
X226853Y464647D01*
X227494Y465483D01*
X227897Y466456D01*
X227969Y467000D01*
D02*
G37*
G36*
X223500D02*
X220031D01*
X220103Y466456D01*
X220506Y465483D01*
X221147Y464647D01*
X221983Y464006D01*
X222956Y463603D01*
X223500Y463531D01*
Y467000D01*
D02*
G37*
G36*
X209500Y413921D02*
Y410500D01*
X212921D01*
X212851Y411032D01*
X212453Y411993D01*
X211819Y412819D01*
X210993Y413453D01*
X210032Y413851D01*
X209500Y413921D01*
D02*
G37*
G36*
X208500D02*
X207968Y413851D01*
X207007Y413453D01*
X206181Y412819D01*
X205547Y411993D01*
X205149Y411032D01*
X205079Y410500D01*
X208500D01*
Y413921D01*
D02*
G37*
G36*
X311500Y419000D02*
X303500D01*
Y411000D01*
X311500D01*
Y419000D01*
D02*
G37*
G36*
X118500Y419034D02*
X117456Y418897D01*
X116483Y418494D01*
X115647Y417853D01*
X115006Y417017D01*
X114603Y416044D01*
X114465Y415000D01*
X114603Y413956D01*
X115006Y412983D01*
X115647Y412147D01*
X116483Y411506D01*
X117456Y411103D01*
X118500Y410965D01*
X119544Y411103D01*
X120517Y411506D01*
X121353Y412147D01*
X121994Y412983D01*
X122397Y413956D01*
X122535Y415000D01*
X122397Y416044D01*
X121994Y417017D01*
X121353Y417853D01*
X120517Y418494D01*
X119544Y418897D01*
X118500Y419034D01*
D02*
G37*
G36*
X239000Y413987D02*
X237968Y413851D01*
X237007Y413453D01*
X236181Y412819D01*
X235547Y411993D01*
X235149Y411032D01*
X235013Y410000D01*
X235149Y408968D01*
X235547Y408007D01*
X236181Y407181D01*
X237007Y406547D01*
X237968Y406149D01*
X239000Y406013D01*
X240032Y406149D01*
X240993Y406547D01*
X241819Y407181D01*
X242453Y408007D01*
X242851Y408968D01*
X242987Y410000D01*
X242851Y411032D01*
X242453Y411993D01*
X241819Y412819D01*
X240993Y413453D01*
X240032Y413851D01*
X239000Y413987D01*
D02*
G37*
G36*
X118500Y409034D02*
X117456Y408897D01*
X116483Y408494D01*
X115647Y407853D01*
X115006Y407017D01*
X114603Y406044D01*
X114465Y405000D01*
X114603Y403956D01*
X115006Y402983D01*
X115647Y402147D01*
X116483Y401506D01*
X117456Y401103D01*
X118500Y400965D01*
X119544Y401103D01*
X120517Y401506D01*
X121353Y402147D01*
X121994Y402983D01*
X122397Y403956D01*
X122535Y405000D01*
X122397Y406044D01*
X121994Y407017D01*
X121353Y407853D01*
X120517Y408494D01*
X119544Y408897D01*
X118500Y409034D01*
D02*
G37*
G36*
X212921Y409500D02*
X209500D01*
Y406079D01*
X210032Y406149D01*
X210993Y406547D01*
X211819Y407181D01*
X212453Y408007D01*
X212851Y408968D01*
X212921Y409500D01*
D02*
G37*
G36*
X208500D02*
X205079D01*
X205149Y408968D01*
X205547Y408007D01*
X206181Y407181D01*
X207007Y406547D01*
X207968Y406149D01*
X208500Y406079D01*
Y409500D01*
D02*
G37*
G36*
X307500Y439035D02*
X306456Y438897D01*
X305483Y438494D01*
X304647Y437853D01*
X304006Y437017D01*
X303603Y436044D01*
X303466Y435000D01*
X303603Y433956D01*
X304006Y432983D01*
X304647Y432147D01*
X305483Y431506D01*
X306456Y431103D01*
X307500Y430966D01*
X308544Y431103D01*
X309517Y431506D01*
X310353Y432147D01*
X310994Y432983D01*
X311397Y433956D01*
X311535Y435000D01*
X311397Y436044D01*
X310994Y437017D01*
X310353Y437853D01*
X309517Y438494D01*
X308544Y438897D01*
X307500Y439035D01*
D02*
G37*
G36*
X209000Y433987D02*
X207968Y433851D01*
X207007Y433453D01*
X206181Y432819D01*
X205547Y431993D01*
X205149Y431032D01*
X205013Y430000D01*
X205149Y428968D01*
X205547Y428007D01*
X206181Y427181D01*
X207007Y426547D01*
X207968Y426149D01*
X209000Y426013D01*
X210032Y426149D01*
X210993Y426547D01*
X211819Y427181D01*
X212453Y428007D01*
X212851Y428968D01*
X212987Y430000D01*
X212851Y431032D01*
X212453Y431993D01*
X211819Y432819D01*
X210993Y433453D01*
X210032Y433851D01*
X209000Y433987D01*
D02*
G37*
G36*
X307500Y449035D02*
X306456Y448897D01*
X305483Y448494D01*
X304647Y447853D01*
X304006Y447017D01*
X303603Y446044D01*
X303466Y445000D01*
X303603Y443956D01*
X304006Y442983D01*
X304647Y442147D01*
X305483Y441506D01*
X306456Y441103D01*
X307500Y440966D01*
X308544Y441103D01*
X309517Y441506D01*
X310353Y442147D01*
X310994Y442983D01*
X311397Y443956D01*
X311535Y445000D01*
X311397Y446044D01*
X310994Y447017D01*
X310353Y447853D01*
X309517Y448494D01*
X308544Y448897D01*
X307500Y449035D01*
D02*
G37*
G36*
X212953Y443953D02*
X205047D01*
Y436047D01*
X212953D01*
Y443953D01*
D02*
G37*
G36*
X239000Y423987D02*
X237968Y423851D01*
X237007Y423453D01*
X236181Y422819D01*
X235547Y421993D01*
X235149Y421032D01*
X235013Y420000D01*
X235149Y418968D01*
X235547Y418007D01*
X236181Y417181D01*
X237007Y416547D01*
X237968Y416149D01*
X239000Y416013D01*
X240032Y416149D01*
X240993Y416547D01*
X241819Y417181D01*
X242453Y418007D01*
X242851Y418968D01*
X242987Y420000D01*
X242851Y421032D01*
X242453Y421993D01*
X241819Y422819D01*
X240993Y423453D01*
X240032Y423851D01*
X239000Y423987D01*
D02*
G37*
G36*
X209000D02*
X207968Y423851D01*
X207007Y423453D01*
X206181Y422819D01*
X205547Y421993D01*
X205149Y421032D01*
X205013Y420000D01*
X205149Y418968D01*
X205547Y418007D01*
X206181Y417181D01*
X207007Y416547D01*
X207968Y416149D01*
X209000Y416013D01*
X210032Y416149D01*
X210993Y416547D01*
X211819Y417181D01*
X212453Y418007D01*
X212851Y418968D01*
X212987Y420000D01*
X212851Y421032D01*
X212453Y421993D01*
X211819Y422819D01*
X210993Y423453D01*
X210032Y423851D01*
X209000Y423987D01*
D02*
G37*
G36*
X141500Y435530D02*
X140586Y435410D01*
X139735Y435057D01*
X139004Y434496D01*
X138443Y433765D01*
X138090Y432914D01*
X137970Y432000D01*
X138090Y431086D01*
X138443Y430235D01*
X139004Y429504D01*
X139735Y428943D01*
X139971Y428845D01*
Y424656D01*
X139642Y424544D01*
X139471Y424516D01*
X138765Y425057D01*
X137914Y425410D01*
X137000Y425530D01*
X136086Y425410D01*
X135235Y425057D01*
X134504Y424496D01*
X133943Y423765D01*
X133590Y422914D01*
X133470Y422000D01*
X133590Y421086D01*
X133688Y420851D01*
X127419Y414581D01*
X127087Y414085D01*
X126971Y413500D01*
Y380633D01*
X121962Y375625D01*
X121500Y375816D01*
Y383000D01*
X113500D01*
Y375000D01*
X120684D01*
X120875Y374538D01*
X119032Y372695D01*
X118544Y372897D01*
X117500Y373035D01*
X116456Y372897D01*
X115483Y372494D01*
X114647Y371853D01*
X114006Y371017D01*
X113603Y370044D01*
X113465Y369000D01*
X113603Y367956D01*
X114006Y366983D01*
X114647Y366147D01*
X115483Y365506D01*
X116456Y365103D01*
X117500Y364966D01*
X118544Y365103D01*
X119517Y365506D01*
X120353Y366147D01*
X120994Y366983D01*
X121397Y367956D01*
X121535Y369000D01*
X121397Y370044D01*
X121195Y370532D01*
X129581Y378919D01*
X129913Y379415D01*
X130029Y380000D01*
Y412866D01*
X135851Y418688D01*
X136086Y418590D01*
X137000Y418470D01*
X137914Y418590D01*
X138765Y418943D01*
X139471Y419484D01*
X139642Y419456D01*
X139971Y419344D01*
Y383633D01*
X119032Y362695D01*
X118544Y362897D01*
X117500Y363035D01*
X116456Y362897D01*
X115483Y362494D01*
X114647Y361853D01*
X114006Y361017D01*
X113603Y360044D01*
X113465Y359000D01*
X113603Y357956D01*
X114006Y356983D01*
X114647Y356147D01*
X115483Y355506D01*
X116456Y355103D01*
X117500Y354965D01*
X118544Y355103D01*
X119517Y355506D01*
X120353Y356147D01*
X120994Y356983D01*
X121397Y357956D01*
X121535Y359000D01*
X121397Y360044D01*
X121195Y360532D01*
X142581Y381919D01*
X142913Y382415D01*
X143029Y383000D01*
Y428845D01*
X143265Y428943D01*
X143996Y429504D01*
X144557Y430235D01*
X144910Y431086D01*
X145030Y432000D01*
X144910Y432914D01*
X144557Y433765D01*
X143996Y434496D01*
X143265Y435057D01*
X142414Y435410D01*
X141500Y435530D01*
D02*
G37*
G36*
X307500Y429035D02*
X306456Y428897D01*
X305483Y428494D01*
X304647Y427853D01*
X304006Y427017D01*
X303603Y426044D01*
X303466Y425000D01*
X303603Y423956D01*
X304006Y422983D01*
X304647Y422147D01*
X305483Y421506D01*
X306456Y421103D01*
X307500Y420965D01*
X308544Y421103D01*
X309517Y421506D01*
X310353Y422147D01*
X310994Y422983D01*
X311397Y423956D01*
X311535Y425000D01*
X311397Y426044D01*
X310994Y427017D01*
X310353Y427853D01*
X309517Y428494D01*
X308544Y428897D01*
X307500Y429035D01*
D02*
G37*
%LPD*%
D17*
X239000Y430000D02*
X249500D01*
Y399000D02*
Y430000D01*
X240000Y389500D02*
X249500Y399000D01*
X240000Y365136D02*
Y389500D01*
Y365136D02*
X244500Y360636D01*
Y352236D02*
Y360636D01*
X239000Y440000D02*
Y449000D01*
X231500Y456500D02*
X239000Y449000D01*
Y440000D02*
X245000D01*
X274000Y411000D01*
X244500Y381500D02*
X274000Y411000D01*
X244500Y367000D02*
Y381500D01*
X145000Y364000D02*
X146000Y365000D01*
X122000Y341000D02*
X145000Y364000D01*
X122000Y337136D02*
Y341000D01*
X119364Y334500D02*
X122000Y337136D01*
X116636Y334500D02*
X119364D01*
X108000Y325864D02*
X116636Y334500D01*
X108000Y278500D02*
Y325864D01*
Y278500D02*
X127000Y259500D01*
X224000D01*
X297500Y333000D01*
Y355000D01*
X307500Y365000D01*
X210500Y357000D02*
X211500Y358000D01*
X204000Y350500D02*
X210500Y357000D01*
X209000Y370000D02*
X211972D01*
X244500Y337472D01*
X185500Y350500D02*
X204000D01*
X179500Y456500D02*
X231500D01*
X118500Y435000D02*
X140000Y456500D01*
X179500D01*
X225500Y397000D02*
X226000D01*
X225000D02*
X225500D01*
X173500Y345500D02*
X225000Y397000D01*
X151000Y345500D02*
X173500D01*
X151000Y289500D02*
Y345500D01*
X142000Y290500D02*
Y306000D01*
X117500Y319000D02*
X142500D01*
X141500Y383000D02*
Y432000D01*
X117500Y359000D02*
X141500Y383000D01*
X137000Y422000D02*
Y423000D01*
X128500Y413500D02*
X137000Y422000D01*
X128500Y380000D02*
Y413500D01*
X117500Y369000D02*
X128500Y380000D01*
X109000Y429500D02*
X125500D01*
X137000Y441000D01*
X108500Y429000D02*
X109000Y429500D01*
X108500Y358000D02*
Y429000D01*
Y358000D02*
X117500Y349000D01*
X181685Y485000D02*
X199185Y467500D01*
X148500Y485000D02*
X181685D01*
X118500Y455000D02*
X148500Y485000D01*
X118500Y445000D02*
Y455000D01*
D18*
X145000Y364000D02*
D03*
X210500Y357000D02*
D03*
X209000Y370000D02*
D03*
X185500Y350500D02*
D03*
X179500Y456500D02*
D03*
X224000Y467500D02*
D03*
X225500Y397000D02*
D03*
D19*
X262216Y373693D02*
D03*
Y330386D02*
D03*
D20*
X244500Y352236D02*
D03*
Y337472D02*
D03*
Y367000D02*
D03*
X199185Y467500D02*
D03*
X189342D02*
D03*
X179500D02*
D03*
X307500Y425000D02*
D03*
Y435000D02*
D03*
Y445000D02*
D03*
Y455000D02*
D03*
Y465000D02*
D03*
Y365000D02*
D03*
Y355000D02*
D03*
Y345000D02*
D03*
Y335000D02*
D03*
Y325000D02*
D03*
Y385000D02*
D03*
Y375000D02*
D03*
X118500Y435000D02*
D03*
Y425000D02*
D03*
Y415000D02*
D03*
Y405000D02*
D03*
Y395000D02*
D03*
Y455000D02*
D03*
Y445000D02*
D03*
X117500Y369000D02*
D03*
Y359000D02*
D03*
Y349000D02*
D03*
Y339000D02*
D03*
Y329000D02*
D03*
Y319000D02*
D03*
Y309000D02*
D03*
Y299000D02*
D03*
Y289000D02*
D03*
D21*
X192500Y277500D02*
D03*
X209000Y430000D02*
D03*
Y420000D02*
D03*
Y410000D02*
D03*
X239000Y440000D02*
D03*
Y430000D02*
D03*
Y420000D02*
D03*
Y410000D02*
D03*
D22*
X202500Y277500D02*
D03*
X209000Y440000D02*
D03*
D23*
X141000Y289500D02*
D03*
X151000D02*
D03*
D24*
X307500Y415000D02*
D03*
Y395000D02*
D03*
X118500Y465000D02*
D03*
X117500Y379000D02*
D03*
D25*
X142000Y306000D02*
D03*
X141500Y432000D02*
D03*
X137000Y422000D02*
D03*
Y441000D02*
D03*
M02*
