M48
;Layer_Color=9474304
;FILE_FORMAT=2:5
INCH,LZ
;TYPE=PLATED
T1F00S00C0.03353
T2F00S00C0.03500
;TYPE=NON_PLATED
T3F00S00C0.03346
T4F00S00C0.03543
T5F00S00C0.03600
T6F00S00C0.03650
T7F00S00C0.03937
%
T01
X03085Y0291
Y03185
T02
X03325Y0295
X04665Y02685
X0273Y02815
X0262Y02025
X0236Y02155
X04385Y0316
X0498Y0325
T03
X0472Y0298
X0422
X0406Y02985
X0356
T04
X0254Y0293
X0264
X0274
X0284
Y0323
X0274
X0264
X0254
T05
X0483354Y0233126
Y0250843
X04095Y0191
X03995
X03895
X03795
X03695
X03595
X03495
X03395
X03295
X03195
X03035
X02935
X02835
X02735
X02635
X02535
X02435
X02335
X0234Y0381
X0244
X0254
X0264
X0274
X0284
X0303
X0313
X0323
X0333
X0343
X0353
X0363
X0373
T06
X0254Y0213
Y0223
X0258315Y02645
X0268157
X0278
T07
X034Y0324
X0354764
X0369528
X04185Y0329
X0433067
X0447634
M30
